<?xml version="1.0" encoding="utf-8" ?>
<svg baseProfile="full" height="300mm" version="1.1" viewBox="0,0,200,300" width="200mm" xmlns="http://www.w3.org/2000/svg" xmlns:ev="http://www.w3.org/2001/xml-events" xmlns:xlink="http://www.w3.org/1999/xlink"><defs /><rect fill="#222222" height="300" width="200" x="0" y="0" /><text fill="#FFFFFF" style="font-size:12px; font-family:Arial; font-weight:bold;" x="10" y="20">Over 10km Workouts</text><text fill="#FFFFFF" style="font-size:4px; font-family:Arial" x="10" y="280">ATHLETE</text><text fill="#FFFFFF" style="font-size:9px; font-family:Arial" x="10" y="290">agassi_yzh</text><text fill="#FFFFFF" style="font-size:4px; font-family:Arial" x="120" y="280">STATISTICS</text><text fill="#FFFFFF" style="font-size:3px; font-family:Arial" x="120" y="285">Number: 19</text><text fill="#FFFFFF" style="font-size:3px; font-family:Arial" x="120" y="290">Weekly: 2.4</text><text fill="#FFFFFF" style="font-size:3px; font-family:Arial" x="141" y="285">Total: 275.8 km</text><text fill="#FFFFFF" style="font-size:3px; font-family:Arial" x="141" y="290">Avg: 14.5 km</text><text fill="#FFFFFF" style="font-size:3px; font-family:Arial" x="167" y="285">Min: 11.6 km</text><text fill="#FFFFFF" style="font-size:3px; font-family:Arial" x="167" y="290">Max: 33.1 km</text><polyline fill="none" points="12.473256853438215,69.84133899772132 12.618072109646164,70.00205962497421 12.606004171655513,69.84832685894071 12.521528605517233,70.09988938747847 12.67237783074961,70.07193804100098 12.678411799803143,69.71555737443123 12.394815256266156,69.4360418296128 12.25,68.70929607869766 12.527562574541662,68.4996564493631 14.88684445770923,67.77290076998906 17.704707985714776,66.71769371082337 17.813319427892566,66.75962277808867 18.217595351627097,66.49407158554095 21.25268176404643,65.34799674136593 21.30698748512077,65.02653328230372 24.529126936860848,63.32834259495576 23.46714839094784,62.210169370955555 22.96029499405995,61.371527478680946 22.368966031004675,59.952801575054764 20.12432955901022,56.961499955665204 19.88297079858603,56.388385204132646 18.754618593578925,51.698448969102174 18.04864421932143,50.1117659520969 18.054678188316757,49.950998661573976 20.70359058404574,49.552573749904695 25.470426102518104,48.497086025890894 30.70791120378999,48.16855341463088 32.312946960679255,47.86797964503785 32.52413587606861,47.67924660380959 33.19390643623774,47.777108245674754 34.804976162093226,47.34371991290391 35.480780691315886,46.90333863624983 36.41001191895339,46.09946074870095 37.07374851012719,45.78489726730186 38.50379916568636,45.51926475766959 40.79670738975983,44.8621693854584 42.703441597142955,44.659447199977876 43.80765792611055,44.28895337916765 46.480706197879044,43.708742046881525 49.49769070322509,43.27532796404557 49.558030393352965,43.07959167249646 49.44338498212164,42.63918297057535 48.65293504172587,40.94742796385253 48.55639153756783,40.53496895850549 48.876191895105876,40.37417918154097 51.68198748512077,39.584206530947995 51.694055423140526,39.43739644980815 51.16910011920845,38.40971706616983 52.31555423125974,37.9063582696981 52.33969010729925,37.66865977363341 51.869040524441516,36.80874361414317 52.75,36.4102422185897 52.333656138245715,35.396500140479475 52.36382598330965,35.26366385903384 52.68966030990123,35.10286169970641 52.53881108461064,34.90011061252153" stroke="#4dd2ff" stroke-linecap="round" stroke-linejoin="round" stroke-width="0.5"><title>2023-06-28 12.2km</title></polyline><polyline fill="none" points="96.30578771414002,36.264604086481995 97.75,39.66340569931708 96.22680735477479,40.25817742675645 95.51034266609349,40.43464709599721 89.93094442121219,41.212415026206145 89.69964479730697,41.41502528847559 89.64887170912698,41.584955981725216 90.10582950268872,43.127383183778875 90.21865858754609,43.93779614349114 88.38518595902133,43.892047298013495 85.64343919762177,44.36260529046194 83.99613455910003,44.434495790290384 83.82689093187219,44.58481202911571 83.74791057247785,44.4410312862783 80.46458420390263,44.61748942566555 81.40670706224046,44.591347509773186 81.55902632678044,44.78087615811455 81.89187212698744,45.872288835980726 82.12317175092176,47.13359887693878 82.20215211028699,48.68242747957629 82.59141245298088,49.82605324909309 82.49550773086958,50.02210133037079 81.00052235685871,49.6822842747024 80.3348307563283,49.728028983390686 75.97398662765045,50.786683112874016 72.76399916422088,51.7930418013093 71.95162975345738,51.96294495468101 69.48067279561656,52.09363938134993 69.22680735477479,52.02829220136118 68.80369828664698,52.132847657350794 67.33127872960176,52.224333541325905 66.51326786458958,52.198194730674004 63.71510656076134,52.368096809270355 63.65305056414218,52.65562237704944 63.72638946925872,53.07383908060365 64.11000835767481,54.054023779313866 65.93783953195089,56.530556959554815 66.41172168822959,57.26892431320812 67.29178854989004,59.02006241865092 68.14928959464305,60.091630787141185 67.27486418720218,60.43139262522527 65.44703301292611,61.43106604561399 62.208838278311305,62.71820427782586 62.03959465105436,63.09062016191092 62.37244045129046,64.06411812643273 57.49258253237349,65.84773710068475 57.306414542370476,66.0698693209306 57.289490179682616,66.31160056813314 57.97774759714957,68.44794249618644 57.35718763055047,68.735395913518 57.25,68.38914504743661 57.36282908482826,68.37607894040775" stroke="#4dd2ff" stroke-linecap="round" stroke-linejoin="round" stroke-width="0.5"><title>2023-06-28 13.0km</title></polyline><polyline fill="none" points="102.53249496981152,69.2327827313311 102.57052313879831,69.27682085564811 102.25543259552796,69.39006160247664 102.95623742451426,69.39006160247664 103.49949698187993,68.93709736859819 103.47233400400728,69.03146519145957 103.32022132797283,68.98113570388523 103.04315895368927,68.57220709598914 102.3749496981618,66.91759137597546 102.52162977863918,66.46460899564408 102.25,65.59009193904421 102.33692152914591,65.43909493364481 105.23792756535113,64.5897298939999 105.835513078433,64.2940222847792 107.03068410462583,63.8976460326121 107.07414486919879,63.63968551666039 107.17736418510322,63.576768154085585 107.29144869212178,63.740353163389955 110.23591549292905,62.56378978500288 112.42525150903384,61.39349593353836 113.13692152916337,61.15440091053824 113.23470824948163,60.87755288422704 113.41398390341783,61.06002104113577 115.2827967806661,60.770588541381585 116.34758551308187,60.74542043374822 116.54315895371838,60.493738792836666 116.61378269616398,60.72025231587031 118.24899396378896,60.6321638224108 124.84416498994688,61.09148101363462 125.14839034204488,60.883844898624375 126.21317907443154,59.09688702361018 126.74557344065397,58.68160066874043 127.3322937625635,58.3858647420966 128.9294768611726,58.052373592134245 129.84758551308187,57.74404998168757 129.88561368209776,57.586741423463536 129.36951710260473,55.45989033954538 130.17354124749545,55.025701666898385 129.97253521127277,54.679607057576504 130.22786720321164,54.45936402231746 135.329074446694,51.92336612352665 136.74154929578071,51.43251577549381 138.9308853118855,50.18649349930638 141.84818913482013,48.72018251328336 141.98400402415427,48.411812246133195 141.9242454728228,47.4678120457902 141.54396378269303,44.604256354472454 142.66307847082498,44.44062058339841 142.75,44.13852263415538 141.73953722332953,41.425868469254056 140.90835010059527,39.72017096228592 140.6149899396405,39.55652222543722 139.62082494969945,37.076561258360016 139.1807847082673,36.371579518647195 138.50714285712456,36.585592684987205 138.1594567404536,35.609938397527" stroke="#4dd2ff" stroke-linecap="round" stroke-linejoin="round" stroke-width="0.5"><title>2023-06-21 12.3km</title></polyline><polyline fill="none" points="184.64922747967648,35.00377137691976 184.35870464894106,35.13971434239647 184.74420609738445,36.058940075861756 184.42016140156193,36.11072704441176 184.77772796247154,36.13014714670135 185.3978824665537,35.81942479591817 185.55431783694075,35.91005230558949 186.10742861087783,37.016992144192045 187.2583459787711,39.90400742731799 187.75,40.91378442457426 187.67178231480648,41.03029611998136 185.69399227478425,41.74230738341066 180.56514691683697,42.51903782314912 179.88912263759994,42.55787409533514 179.63770864947583,42.81678196855137 179.45892536905012,42.71321894614812 176.218478410854,43.451101789331005 173.13446682301583,43.88476576928224 170.1342598979536,44.66146996121097 169.58114912401652,44.907424305059976 168.32407918336685,45.923593980129226 166.82118223205907,46.31193477778288 166.70385570425424,46.36371337111268 166.5865291764494,46.654967170692544 165.89374396469793,46.49963197740726 163.78186646435643,46.862080169808905 158.9603048696299,47.1921651139528 154.54659263347276,48.19535390735109 152.36208442546194,48.531904011862935 152.33414953786996,48.836091992634465 153.06604359226185,50.33112234928922 153.80911160161486,53.54111174844729 154.39574424060993,55.20428833074402 154.70861498138402,55.73494249961004 156.44616498827236,58.02576442992358 157.60266933371895,60.264736439574335 158.40719409575104,61.20301046484383 157.68088701891247,61.51360846478201 156.27855566286598,62.322450288073014 154.28959166785353,63.163634847442154 149.87587943166727,64.91714527160366 147.3952614153677,65.63535880165728 147.26676093257265,65.84240984152711 147.25,66.08181176431026 148.38415643540793,69.46569370339785 148.35063457032084,69.54980319373863 147.8086977514322,69.75684146440472 147.8142847289273,69.9962286230766 148.09922058216762,69.91858964351195 147.89250241414993,69.98975871174116" stroke="#4dd2ff" stroke-linecap="round" stroke-linejoin="round" stroke-width="0.5"><title>2023-06-21 13.2km</title></polyline><polyline fill="none" points="52.75,86.8491384760091 50.82781456952216,87.61303838073945 45.22330298012821,88.46108596914564 44.915976821182994,88.42871794878374 43.78725165562355,88.78476526397935 41.50745033111889,89.25733406721702 38.39507450329256,89.73637282104028 35.176531456934754,90.5326049050309 34.4277731787879,90.90158711480035 33.35492549670744,91.80785009634565 31.81829470198136,92.2156642126647 31.37127483441145,92.51343159346288 30.885140728467377,92.37749448437535 28.728269867540803,92.74646595972808 24.6995033112471,92.96008004322357 21.933567880798364,93.52971408158919 21.76034768210957,93.82747529267726 21.53125,93.633283357045 17.33485099338577,94.44241249943298 17.284561258275062,94.6560208707233 18.078021523193456,96.30660675510808 18.647971854312345,98.63029996572368 18.888245033100247,99.75651618887423 18.837955297989538,99.8471304182167 19.02235099338577,100.13191715355788 19.290562913927715,100.95390806026262 19.776697019842686,101.76294382848937 21.659768211917253,104.28706912137568 22.66556291389861,106.21569205710693 23.414321192045463,107.10879288842989 21.134519867540803,108.28015970800334 19.150869205303025,109.13440254016677 14.680670529778581,110.88815292758227 12.40086920527392,111.5029248028477 12.25,111.96238200056177 12.551738410606049,112.86834419547085 12.518211920541944,113.01717960517271 12.814362582779722,113.6060467173811 13.378725165559445,115.43085296637582 12.758485099329846,115.6508615239909 12.652317880798364,115.50850313258707" stroke="#4dd2ff" stroke-linecap="round" stroke-linejoin="round" stroke-width="0.5"><title>2023-06-16 11.7km</title></polyline><polyline fill="none" points="65.22647541043989,81.0 65.35003438282001,81.06506679199083 65.45487229876744,81.81983429698812 65.91915449802764,82.79580688273927 68.25179812805436,85.81033621129609 68.8845698350924,86.24840109604338 71.87245043987059,88.6858678037861 72.77854957063391,89.33641357952729 74.57202677575697,90.80661036113088 77.22667257626017,92.84485218231202 77.67597793035384,93.43028655807575 78.13651591830421,94.41900186998464 78.76554341406154,94.95671458209472 79.06508031678095,95.32530404591671 79.88880679931026,97.35465705976821 80.52532271759992,98.53840160567779 81.09444283280754,99.39692099672538 81.73095875112631,101.00551422121134 82.84298950251832,102.28020528076377 82.93285057335743,102.56201957795929 83.01896743287216,103.36843171632063 83.35220223717624,104.82080212738947 84.05985816987231,107.46962470563085 84.2358361002407,107.6126824441526 84.10478870529914,107.6733734606969 84.52788458039868,109.66745873134641 84.76002568000695,109.71080737374723 86.54601446256856,109.61110543022005 86.59843342055683,110.29600972609842 86.54975867384928,109.62411004478781 89.35417292571219,109.76282568636816 89.47024347551633,111.78715565367384 89.38412661598704,112.39833700526287 89.53389506734675,112.49803242185226 89.57133718021214,114.43554482113905 89.62750034945202,114.91232406576455 89.75480353311286,115.10303426901737 89.67991930745484,115.02935088263257 89.63498877204256,115.79651871809256 89.71361720899586,116.77604626295215 89.66868667358358,117.3264788464403 89.63873298332328,117.365485610022 89.3766381934256,117.21812653799861 89.16696236150165,117.22246063561761 89.46649926423561,117.25713340079164 89.683663518721,117.43483087927234 89.50768558838172,118.45332651539502 89.5750813914783,118.5270039785537 89.77352458954556,118.54433983370473 89.62375613818585,118.93006078620965 89.49270874322974,119.69282452219704 89.38787082728231,119.89218097466437 89.40284767239064,120.36023158800162 89.31298660159518,120.65926123216923 89.35791713700746,120.7762722607149 89.34668450315075,121.5" stroke="#4dd2ff" stroke-linecap="round" stroke-linejoin="round" stroke-width="0.5"><title>2023-06-14 14.3km</title></polyline><polyline fill="none" points="103.26538807986071,119.16722016588756 103.03434169045067,119.27283649951278 103.25930791173596,119.19538453732093 103.51467497373233,119.25171324570692 103.01002101789345,118.85037019605079 102.74857378774323,117.63928580623906 102.35944302659482,116.85066129997722 102.46280588500667,116.7450412627586 102.55400840713992,116.24510422845924 102.25,115.22409481833165 102.31080168142216,115.09030625995365 105.03471700946102,114.32981900462619 107.70999099235632,113.34398972874624 111.01152229396394,111.94267961125297 111.19392733823042,111.62579649692634 111.37633238252602,111.82296838341426 113.66247560427291,110.59063485650404 114.37385527699371,110.28782953841437 115.3102011710289,110.0624851840912 119.52983786218101,109.68925697960367 127.57998048342415,110.23853552372748 127.89614922684268,110.00614898061758 129.12434319168096,107.97097280761227 129.67155832456774,107.54139508320804 130.33429665214499,107.2033648308934 132.3103512986272,106.73857053168467 133.22845668820082,106.41462113941816 132.54139768800815,103.99903752825776 133.5385452634946,103.39336774306867 133.12509382975986,102.55528102063545 133.3014187059016,102.37216828146484 132.45627533402876,99.92122793307499 132.37723314817413,98.72389784477127 131.31320372314076,93.44131123249099 131.38008557271678,93.37087401242752 131.23416153731523,93.1384306761538 131.05175649301964,92.37770155542239 131.0578366611735,91.29998761047318 132.80892508631223,91.10275709246343 133.5385452634946,90.84213018607261 137.28392883951892,90.01797916538635 137.37513136168127,90.08841980835132 140.90162888454506,89.58828968614398 141.04147275185096,89.26425978426414 140.99891157480306,88.65141646098346 140.58546014109743,86.44654430549417 142.68311815042398,85.81958695855428 142.75,85.67165237163135 142.4277510884276,84.15706572994532 141.95349797327071,83.22716350048722" stroke="#4dd2ff" stroke-linecap="round" stroke-linejoin="round" stroke-width="0.5"><title>2023-06-12 11.6km</title></polyline><polyline fill="none" points="184.13555894445744,84.85442638095992 185.63933828406152,88.48838778920253 186.21399681741605,89.60217845726584 186.5254939662991,89.75151197116429 186.3482628298516,89.90706732567196 186.87995623922325,91.21371662714955 187.75,93.77093490758489 187.73388807851006,93.87670561572668 187.07866993764765,94.13179892135304 186.6866131812858,94.18157310041715 186.4073398753535,94.36200415876374 186.47178756134235,95.54412546595631 182.11619811697165,95.81165500154384 181.12800026522018,96.01074598690684 180.08609600848285,96.37781828647712 179.84441718604648,96.58935047214254 177.33095743268495,97.88341374462107 171.94420501260902,99.49473297969962 171.21379790481296,99.43874190583301 170.2739358175313,99.20855583967568 169.58649383371812,99.26454712494524 165.75722715820302,100.17906417198174 161.4231202758383,101.43572508511716 158.9472550059727,101.4792722761922 157.16957300092326,101.65346072947796 156.60565574857173,101.5912506247223 154.0223776687635,101.76543875810603 153.85051717280294,101.84009066295039 153.7162511603383,102.01427808544759 153.75921628432116,102.3937561044113 154.14590240019606,103.37665540248418 156.1813751491718,106.21328858720153 157.23939132739906,108.2535922779316 157.96979843522422,109.11821258051714 157.07290147192543,109.50386660458025 155.2468837024353,110.4866513188681 152.38433231669478,111.59382019424447 152.1533947752323,111.58138020614206 152.0137581222807,111.77419973659562 150.86444105557166,112.26557578432403 149.49492772840313,112.76938762250575 147.36278345048777,113.36649256142846 147.25,113.75833950156448 148.3348693807202,117.07960773544619 147.78169340937166,117.2599710594659 147.71187508289586,117.64557361903644" stroke="#4dd2ff" stroke-linecap="round" stroke-linejoin="round" stroke-width="0.5"><title>2023-06-12 12.8km</title></polyline><polyline fill="none" points="33.3838780678052,130.7199344296314 33.24825656533358,130.70367869145775 33.327758825413184,130.79579447528158 33.72994672926143,130.64949286156116 34.1648708578432,131.24011542136213 35.03939571857336,133.58086677006213 36.278695654909825,136.1815804943799 38.4065502625308,142.39026917501906 38.930329858267214,145.7543599487144 38.82744458052912,145.8627007139803 37.33093144989107,146.4856558241081 37.0269522202143,146.53982548827844 36.92874354601372,146.65899855490352 37.01759901313926,152.26524740320747 35.21710665282444,152.26524740320747 34.45482027690741,152.34107666434284 33.84218521407456,152.51981663726474 32.93492412858177,153.001869929245 32.59820867420058,153.0885307312601 31.41970458382275,153.02895144505965 28.754040569852805,152.536065695891 26.696335015207296,152.50356757367263 26.52330068446463,152.6823069997772 26.551360305660637,154.16094645543126 26.102406366495416,156.70649305104962 26.233351265400415,160.22672886506552 26.420415406755637,160.42710450344748 26.658922186936252,160.52999980788445 26.62150935869431,160.8765930517402 26.4110621996806,161.16902934284008 26.471858045610134,161.74306627125043 26.630862565740244,162.29543557457146 27.070463297859533,163.2756061855107 27.54280025474145,163.59510540609335 27.659715343063,164.11496443952637 27.88419231266016,164.53734616003567 28.55762322145165,166.54632095709167 28.71662774158176,168.20867665472178 29.427471478644293,169.91429703653557 29.46020770337782,170.25 29.6379186376289,170.17419629031428 29.46020770337782,170.23375635701086 29.4040884609567,169.8439074366761 28.74001075924025,168.28448316705908 28.599712653260212,166.70876843112273 27.88419231266016,164.52651590143796 27.692451567796525,164.27741934467122 27.54280025474145,163.58969018107746 27.552153461787384,163.66550328121593 27.47265120173688,163.5192922055321 27.047080280201044,163.24852989209467 26.719718032865785,162.53912608905375 26.4625048385642,161.710573780485 26.425092010264052,161.09862816058012 26.62618596223183,160.844100031165 26.644892376323696,160.5029221155055 26.495241063268622,160.35670233823112 26.50459427034366,160.4379355974961 26.420415406755637,160.4216889555828 26.392355785530526,160.2917156413787 26.261410886625526,156.7823159725267 26.672951997548807,154.03637402315871 26.64956897989032,152.72563767915562 26.453151631489163,147.72071043321557 26.34091314667603,147.09776981311006 26.069670141732786,146.3285634854983 30.638711793755647,144.01546041601614 31.53194306860678,143.74459866423422 33.56158900205628,142.59612948416907 36.09630811709212,141.32303319566563 36.22257641251781,141.10091539578207 35.998099442891544,139.2426739716866 36.00277604642906,139.14515513235528 36.203869998367736,139.03138292667427 36.16178056655917,138.93928143869198 36.082278306479566,139.0097120027167 36.11501453121309,138.8038377836674 36.203869998367736,138.85259753929495 36.17113377363421,138.73882470647732 36.07760170297115,138.9121927353408 36.157103963021655,139.1234842548438 36.01680585704162,139.11806653408712 35.96536321815802,138.99345880392138 35.80168209449039,137.79612613758945 36.77909223295865,137.62817233629175 36.858594493038254,137.3410242835089 36.16645717009669,135.5097416598801 35.464966640109196,134.05767382877093 34.77282931719674,132.36173832925124 34.5296459334495,132.24253315600072 34.1648708578432,131.30513768669334 33.800095782266,130.70909727141407 33.182784115866525,130.844561590191 32.86945167911472,130.08053830598874 33.0986052522785,129.94507203621106 33.03313280281145,129.75" stroke="#ff8700" stroke-linecap="round" stroke-linejoin="round" stroke-width="0.5"><title>2023-06-06 21.8km</title></polyline><polyline fill="none" points="64.79789937942405,129.75 64.75978831367684,129.84567654173225 64.80742714586086,129.78679869996995 64.86459374448168,129.9229535630111 64.70262171505601,129.91191399869422 64.70579763720161,130.04438854726322 64.91858442094235,130.5301243910326 65.28063954552636,130.49332645033064 65.2647599347838,130.5779616577638 65.35050983272959,130.49332645033064 65.40132458704466,130.53748397466188 65.33463022200158,130.3718929793249 65.36321352131199,130.33877468892388 65.71256495729904,131.1299255253798 66.04603678257263,132.09400213072877 66.60182315799466,133.2677857707531 66.57959170299,133.33769644252243 66.71933227739646,133.50695329672817 66.94482274973416,134.0147190895259 67.5387201909034,135.76240897603202 67.69751629818347,135.7918430273785 68.26918228436261,135.53061498162788 68.7011076961353,135.60420053817506 68.86943156983762,135.58580416312907 69.34264396950311,135.25098849655842 69.7682175369846,135.13325038009862 70.20014294875728,136.0162768785376 73.36336140560161,139.87558465089023 74.62102657518699,140.87621473911713 75.19904440564278,141.23305036964302 76.40271889875294,142.3108932546529 77.39995845241356,143.06131774198366 78.76242905278923,144.47016075525607 78.89581778290449,144.81960415972935 78.99109544725798,145.70607171415395 79.04826204589335,147.5819270788561 79.3976134818804,152.61315162528263 79.61357618775219,152.66463713951816 80.54094545422413,152.5690211260444 80.62987127430097,153.69800943063456 80.55682506495214,153.90394485709476 80.55682506495214,154.30478008601494 81.48737025355513,154.26800639724388 81.62393490580143,156.26108632151227 81.67157373798545,156.37140118473326 81.75414771377109,156.39714127099433 82.65293368091807,156.00736085687095 84.8697273384314,155.30133278785434 85.111097421468,155.84924118715935 85.99717970003258,156.6545411241641 86.63554005126934,157.50027057854822 87.11192837308045,157.85694184420208 87.12780798380845,157.9709288253689 88.22032520183711,157.5738113340267 88.27749180044339,157.66573706774216 88.4299360634177,158.54453526900033 88.49980635063548,158.63278160541813 89.77970297521097,158.56659687331194 90.16081363266858,158.59233539466732 90.25926721916767,159.51155627218031 90.24656353061437,160.78739607414172 90.29737828492944,161.36463443173125 90.25291537489102,161.42713739459214 89.91309170531167,161.3940476041971 89.50974959286395,161.68817801147088 89.3795367849234,161.70656108240655 89.25249989907024,161.9198040213778 89.16357407900796,162.30584407040806 89.20486106691533,163.16247058661247 88.99842612745124,163.54849735525204 88.73164866723528,164.265393267302 88.30925102191395,164.89036783983101 88.44263975201466,166.17336999532563 88.40770460841304,166.39393884228411 88.20444559109455,166.75052229697394 87.89002929870912,167.03358088445748 87.77887202362763,167.29090494895718 87.76616833504522,167.5445511620128 87.44540019833948,167.95993894095227 87.42316874333483,168.15476519232107 87.50574271910591,168.9083285405759 87.15639128311886,169.00390130584128 86.49262355473184,169.09212209560792 86.041642610071,168.98552194752847 85.73040223983116,169.01125304654852 84.80620889550482,169.22077702797833 84.48226483668259,169.23548041965478 84.20913553217542,169.33840399393375 82.76091503386851,170.13237600086723 82.50684126223496,170.25 82.3766284542653,170.23897276634307 81.20153726048011,168.33856257982188 79.67391870851861,167.04093302601905 79.36585426042438,166.50789888566942 79.38173387115239,166.30938761009747 79.48971522408829,166.1255799010105 80.3662697362306,165.23226111920667 79.94704801304033,163.75805301643777 79.75966860644985,162.4308466305556 79.71520569641143,161.00064444005693 79.54688182272366,160.53737914508383 79.79142782790586,159.69172082165096 79.75966860644985,159.13284010493953 79.8708258815459,158.69161237655135 79.82636297150748,158.10697733182315 78.16853161160543,157.48188536628732 78.51788304759248,156.43023564063697 79.09272495591722,155.00347305475225 79.05461389017,154.9593454778551 78.67350323272694,154.93360436642615 78.49565159258782,154.85638092199952 77.27609748874966,154.10620172161362 77.54922679324227,153.65755769093448 77.59051378114964,153.4589757658323 77.73025435554155,153.4148463007623 77.73343027768715,153.2015531256875 77.65085630190151,153.2383279009773 77.7493098884006,153.20890808373952 77.58733785898949,153.17213327848367 77.54287494895107,152.96251617304006 77.66038406833832,152.52856812102254 77.55557863753347,151.77466291242308 77.43171767386957,149.6673223762118 77.40313437455916,149.63054396181178 76.13276551640593,149.8144356589073 75.70084010463324,149.77765739446113 72.8710934730625,149.86960298529084 72.81392687444168,149.85121388586776 72.77263988654886,149.73352342763974 72.4010569955426,148.21822448903185 72.26131642112159,148.04168066774218 69.50779192107439,148.14098667351936 69.26959776016884,146.7028619058583 69.30770882591605,143.26731388926783 69.13620903003903,143.14960194917512 67.57365533450502,143.16063745988504 67.49425728087954,143.12385241106313 67.49108135873394,141.20729946298525 67.39897961649694,140.54512697517566" stroke="#ff0000" stroke-linecap="round" stroke-linejoin="round" stroke-width="0.5"><title>2023-06-04 33.1km</title></polyline><polyline fill="none" points="121.71775679700659,129.78868584788142 121.79407320707105,129.75 121.78930343143293,130.46292046910457 121.88469894399168,130.03737992382594 121.97055490530329,130.59002933351076 122.09456907163258,130.241860863287 122.39983471180312,130.4187086201964 122.80526564017055,131.52399400575086 122.93404958216706,131.4632038962809 123.13438015853171,131.54609948319558 123.29178275424056,131.49636214628845 124.35067294366308,130.94924842289402 124.75133409639238,131.84452254462667 125.82453361270018,131.62346858307865 126.43506489307038,131.55162585113794 126.50661152749672,131.60688949956602 127.42717822367558,134.34789564172024 129.27308139170054,138.09997533874412 131.2429987260548,140.55885556998328 131.5816527956631,141.0837705916856 131.3908617705456,141.1887529853011 129.41617466055322,141.46502146945932 129.42094443616224,141.80206711107894 130.62292789440835,144.40443085067818 129.33508847487974,144.9182585868948 127.44625732619897,145.244232795063 125.30939784485963,146.03982262357022 125.24262098607142,146.6365073246634 125.25216053731856,148.93478696788952 125.35232582551544,151.86826665998524 123.50165288188145,151.87931524741725 122.56677685878822,151.99532527940755 121.85608029022114,152.2439173685234 120.9402833696513,152.82948533677336 121.38864227867452,154.1331799676118 121.68436836759793,155.6357043579119 121.6986776945123,156.18809255562883 121.83700118772686,156.63552286769482 121.87992916835356,158.1711197903387 122.37121605806169,159.77847858885434 122.20904368668562,159.8337134391113 120.00540734655806,159.5906796768868 114.57263290631818,159.82266647355937 114.42476986185648,160.17064480664703 114.12427399726585,160.11541029975706 113.57098002446583,160.18169170126203 113.4183472043369,160.24244958139388 113.42311697997502,160.3584417089114 113.57098002446583,160.52966772912623 113.76654082519235,160.5572847784788 113.95256207467173,160.3694885652294 114.2816765930038,160.31977769398873 114.35799300306826,160.5849018137851 114.39138143244782,161.37474306675722 114.22443928549183,161.5238726408861 114.2196695098537,161.6343387275483 114.40569075933308,161.79451415329822 114.3675325543154,161.97125890132884 114.43430941310362,162.23085170509876 114.76342393143568,162.22532846689137 115.02576159097953,162.6616625505667 115.17362463547033,163.12560886250503 115.62675332010258,163.37967301727258 115.71260928141419,163.56193569906827 115.7984652427258,164.10872006745558 116.03695402410813,164.42353280794487 116.70949238765752,166.48910087723561 116.86689498336636,168.15143941459246 117.57282177629531,169.84686176911418 117.6109799813421,170.21686546392448 117.69206616698648,170.25 117.6109799813421,170.19477576196005 117.5680520007154,169.85238423087867 116.84781588084297,168.09069039854148 116.72857149015181,166.54985168788335 116.02264469722286,164.40696376191408 115.82708389649633,164.13633529329672 115.64106264698785,163.4128117322689 115.1688548598031,163.10903941974175 114.69187729700934,162.03753803324798 114.55832357943291,161.46863951312116 114.52493515005335,160.9052583948287 114.72049595077988,160.67879962855295 114.74434482891229,160.30320739343006 114.50585604752996,159.9994176521286 114.35799300306826,156.65761809602554 114.78250303392997,153.78516286028025 114.07657624100102,153.5752466987724 114.17197175355977,153.43714351736708 113.99549005532754,153.53657784346433 114.10042511916254,153.4979089605622 114.00025983096566,153.52552959400418 114.10042511916254,153.6249637578985 114.61079111133586,153.64153610079666 114.78250303392997,153.55315021339993 114.67279819451505,152.69690446430832 114.73957505330327,152.39859631491709 114.55355380382389,147.2718588070602 114.40092098372406,146.492861608589 114.16720197795075,145.85750098691278 118.70325860014418,143.53699016792598 119.73353013576707,143.20548050433354 121.91331759776222,141.97887710041323 124.35067294366308,140.7853984667854 124.50330576376291,140.5257028714368 124.28866586048389,138.55308076435176 124.4365289049747,138.33205420128434 124.45083823183086,138.4094136010026" stroke="#ff8100" stroke-linecap="round" stroke-linejoin="round" stroke-width="0.5"><title>2023-06-02 22.3km</title></polyline><polyline fill="none" points="147.32272183150053,168.61316369866836 147.31666167886578,168.70439704148885 147.38332335776067,168.54298412191565 148.03781984141096,168.34648092648422 147.41968427351094,166.50774527738395 147.57118808917585,166.09367207786272 147.25,165.11111553603405 147.29848122099065,164.94969419151312 149.98918898697593,164.16363701738737 152.65565614242223,163.15999740015104 156.03722130777896,161.77031838657422 156.1220634445781,161.48255306416831 156.25538680230966,161.6860945142762 156.4796124495042,161.60187053895788 158.4915831213293,160.48589313600678 159.3097037258558,160.14197192415304 161.3883360766049,159.79103014046996 164.53961544216145,159.55940758298675 172.46629507702892,160.09284018214385 172.82990423458978,159.82612439935474 173.74498728112667,158.19071292129956 174.6115891066729,157.3624639573609 175.35092772706412,157.03256540762231 178.17495885081007,156.41487876399333 177.47804129880387,153.85984329134953 178.4234251084854,153.25616720842663 178.15677839293494,152.89817075047176 178.22950022446457,152.7156620354508 178.16889869817533,152.25236850763758 177.3568382462836,149.97095335673657 177.24169534639805,148.56696796666802 176.19934909470612,143.2666648344166 175.9630031423003,142.5716279072294 175.9084617686458,141.23067822926532 177.5628834355448,141.00601394582918 177.7689286248642,140.80241130500508 179.07186143947183,140.51455826696474 179.15670357624185,140.6690161445149 181.5019826425123,140.09330774677073 184.45327697138418,139.67907555223792 184.42297620826866,139.27186181017896 184.08966781385243,138.24679585295235 183.82908125090762,137.86765799757268 183.46547209334676,136.96193132518965 183.88362262453302,136.7442743003121 187.5439548106806,135.74023458798183 187.5742555738252,135.3751256027681 187.2288268741395,134.01999260825687 186.78643573244335,133.16336626256088 187.75,132.73504908689938 187.58031572645996,132.53844358806236 187.2712479425245,131.70286394505092 187.5984961843351,131.48519026966096 187.51971420019981,131.29560295851843" stroke="#4dd2ff" stroke-linecap="round" stroke-linejoin="round" stroke-width="0.5"><title>2023-06-01 12.1km</title></polyline><polyline fill="none" points="12.25,212.21198420380097 12.5457693276403,211.64504414143084 12.26019894235651,210.77100067450738 12.316293125186348,210.66469719117595 13.203601108019939,210.4579954151377 16.798728280031355,209.2354869724295 17.00270712666679,209.0701215304798 19.873709393141326,207.93026831989846 21.648325358866714,206.95576462729878 22.3724502644327,206.6604572407523 22.525434399402002,206.3887731152463 22.61212540921406,206.36514834846457 22.63762276506168,206.500990625922 22.77530848653987,206.57777090269155 24.38674137496855,206.3119925879364 25.54432132965303,206.2942739902319 26.788592294149566,206.1584312278901 36.849848904588725,206.7962988256004 38.955930496100336,207.38100461865542 41.036514731822535,207.35738025658793 41.214996222639456,207.4518776469813 42.22979098465294,207.62905983842575 41.56176026191679,207.49912628437232 41.62805338707403,207.57590523790714 41.65865021405625,208.76891897667883 41.50566607908695,208.14288512839994 41.64845127175795,207.93617435290435 41.62805338707403,207.38100461865542 44.34607151852106,207.93617435290435 45.7484260891506,207.97161053823947 45.82491815663525,207.75899310098248 46.81421556283021,207.2510705080931 47.52304205490509,207.00891979696462 48.37975321075646,206.8907971314511 50.57762528330204,206.86126642742965 50.62352052380447,206.69589420664488 50.46033744647866,203.66595528912512 50.48583480232628,200.8248743873628 50.582724754465744,200.70083233612604 52.06667086377274,200.074711259389 52.576617980375886,199.9802018294613 52.75,199.62579009310502 52.204356585250935,196.38872915969478 51.45473432386643,193.91946243500934 50.37874590783031,190.92430135830364 50.12887182069244,190.77660695949817 50.28695542685455,190.65845116905257 49.777008310251404,189.21693109940315 49.29255854949588,188.23620429577204 49.33335431883461,188.1298594265354 48.88970032738871,187.3558992128019 48.55823470157338,186.56420400781644 48.29816167213721,186.46376428952135 47.8290103248728,185.28801579619903" stroke="#4dd2ff" stroke-linecap="round" stroke-linejoin="round" stroke-width="0.5"><title>2023-05-25 13.2km</title></polyline><polyline fill="none" points="92.93265414130292,183.4211925517011 92.87370997617836,183.5267423375517 93.14699655995355,184.3090468016635 93.34526329717482,184.45184732355847 93.75787245301763,184.22212458063223 94.01508335539256,184.20970711033442 94.25621857633814,184.74365604246123 94.40089970891131,184.87403820879263 95.71910558347008,188.17075148637014 96.15850754166604,189.0461198907651 96.48537973006023,189.2199504144628 96.30854723471566,189.3627394014111 96.73723207195872,190.3187961531039 97.75,193.2862012428959 96.72115639058757,193.65866864060445 96.35677427888731,193.88835573203687 96.50145541146048,194.8815872221312 96.42643556496478,195.03057054658711 92.0752844667877,195.26025245674828 90.91783540620236,195.50234866631217 90.0872585339821,195.86238740082626 89.88899179676082,196.07965112328748 89.84612331303651,196.25966904823508 90.56952897590236,199.040567924465 84.92696480549057,201.72823553357375 84.85730351944221,202.28065134732242 85.08236305898754,202.63444310995692 84.19284202170093,203.0627145963408 84.7501323101169,205.27229929361056 82.41915850751684,205.81847640085107 81.62609155860264,206.19707356414438 80.85445885150693,206.9418479942833 79.92742789097247,208.40654444968095 73.78115903679281,208.02796103239234 73.13813178089913,207.9038348091417 71.60558348768973,208.0217547272514 71.3483725853439,208.2638001590858 71.3805239481444,208.12726182872575 71.30014554114314,208.0217547272514 68.82984916641726,208.2638001590858 68.28863455940154,208.41275071557538 67.15797830111114,208.88442507269065 65.56648584280629,209.75949544765172 62.46923789361608,211.0007084419267 62.2173855517467,211.00691444330732 62.06198729822063,211.18068222485454 61.54220693305251,211.40409721502874 59.90784599099425,212.04951369124683 57.46970097909798,212.73215828607863 57.25,213.05486033864145 57.59294786979444,214.0788074482989" stroke="#4dd2ff" stroke-linecap="round" stroke-linejoin="round" stroke-width="0.5"><title>2023-05-23 11.9km</title></polyline><polyline fill="none" points="103.0885691846488,216.72673463804676 103.18688419254613,216.24453772835113 103.33146508643404,216.05031852889078 103.31411537915119,215.8627959985024 102.46976295876084,213.71964335393568 102.42349707271205,213.44504686886648 102.55651149511687,213.13026412038016 102.25,212.28637101249478 102.27891617882415,212.0653495976294 104.51702841641963,211.4759555225537 107.10791803515167,210.50478329522593 107.42599600175163,210.4779921337322 107.72672426103964,210.24356900451676 111.0983507068886,208.8705024471492 112.64825788952294,208.0131585285635 113.76442239043536,207.55099193021306 113.86852063404513,207.30986024007143 112.73500642582076,205.9635253663946 111.76342281879624,204.00760662621178 109.56579323147889,201.0200292531299 109.36916321577155,200.5779098447092 109.23614879342495,199.62667314577266 109.0395187776885,199.24483481991047 108.23564900757628,195.90867919486482 107.57636013141018,194.48841691639973 107.60527631017612,194.34772888592124 109.82025560474722,194.03955405118904 114.6434742253623,192.98102946877043 119.62862344711903,192.6795478251952 121.2421462230559,192.38476443476975 121.51974153934862,192.1435770396638 122.08649864344625,192.27757014635426 123.72893759817816,191.82869216219842 125.26149507358787,190.62943592354713 125.85716835645144,190.36144270704244 127.26249464516877,190.10014826733095 128.62733828360797,189.64455547392572 131.2413608453935,189.25595912143763 131.99318149365718,189.00136026358814 135.6366200199991,188.2777581167611 135.84481650724774,188.02985554632323 135.09299585892586,185.93269633016462 135.1334785092331,185.79869026820234 140.67381836357526,184.2509004168678 142.65168499218998,183.2994270624913 142.75,183.0046015327971 141.80733257177053,180.77326536195324" stroke="#4dd2ff" stroke-linecap="round" stroke-linejoin="round" stroke-width="0.5"><title>2023-05-16 12.4km</title></polyline><polyline fill="none" points="182.9802500992373,183.40985593124788 183.2053394204122,183.39743665285278 182.8730647081975,183.57130631929613 183.05527987296227,183.85694826319377 183.15710599443992,184.2978277595721 183.36611750692828,184.43443765891425 184.01458912267117,184.1984749127041 184.3843787217047,184.84426551510478 185.41335847554728,187.50187002463645 186.73709805475664,190.3021640463994 187.75,193.31342281827892 186.37266772528528,193.87840527557637 186.47449384676293,195.05181361034192 181.8226478761353,195.29394267148018 180.09160381101537,195.79061465236737 179.8611552203365,196.32453250880644 180.6007344184036,199.00646759415758 174.8984716157138,201.76898544518554 174.85559745930368,202.02350325131556 175.08604605001165,202.6442739232698 174.21248511312297,203.11605539838274 174.7430527987308,205.28868603558658 172.2670702659816,205.85976464323903 171.81153235409874,206.07702140202673 170.9540492258675,206.8156885806602 169.9733028979681,208.3861024548678 164.39966256450862,208.05091870517936 163.15095275902422,207.88332613814418 159.89787614133093,208.1440254874833 158.44015482332907,208.33644571954574 157.34686383485678,208.78335487908043 155.72836443033884,209.68957726821827 154.01339817387634,210.4033730757983 150.06361651446787,211.9736943901371 147.46437078205054,212.76194317872068 147.25,213.05365470983088 147.56619690352818,214.10256334714722" stroke="#4dd2ff" stroke-linecap="round" stroke-linejoin="round" stroke-width="0.5"><title>2023-05-16 11.8km</title></polyline><polyline fill="none" points="13.059239640570013,264.4296407164438 13.157000134087866,264.36045638320866 13.12441330292495,264.2095084778266 12.923461177415447,263.81326846924276 12.450952125509502,262.16538589959964 12.575868311658269,261.80058151812773 12.25,260.8822712847359 12.293449108226923,260.72502501109193 14.579958428337704,260.0645862851852 16.36137186535052,259.35382051937995 17.056557596864877,259.17770030258544 17.36613249295624,258.96383936336133 20.537917393026873,257.699528663361 22.455109293281566,256.6553520297457 23.655390907864785,256.25906349944125 27.755900496180402,255.88164348445935 34.86526082875207,256.35341814236745 35.19112914041034,256.0577731121957 36.16873407535604,254.40339285538357 36.983404854516266,253.7680487201069 39.89449510528357,253.08866359155581 39.31879442135687,250.72333845977846 40.144327477552,250.3207208909771 39.99225559877232,249.94326453276153 40.19863886281382,249.7545354872127 45.30390907873516,247.18776311574038 46.596520048275124,246.76624861470555 49.116568325058324,245.33811089740993 51.83756872738013,243.99173050631725 51.973347190592904,243.84073274076218 51.92989808233688,242.90328000342197 51.52256269278587,239.84544915952938 52.65223950651125,239.69444123647918 52.75,239.38613224470828 51.750670510926284,236.68049738431 51.51170041572186,236.32812689252023 50.91970631622826,235.0444744896813 50.6155625586689,234.8494073232505 49.59450851549627,232.28201416191587 49.170879710349254,231.65273480790347 48.54629877966363,231.8729833129255 48.35620893118903,231.6841989282657 48.128101113048615,230.93534850403375 48.410520316509064,230.73397540842416 48.36164006975014,230.57035928355617" stroke="#4dd2ff" stroke-linecap="round" stroke-linejoin="round" stroke-width="0.5"><title>2023-05-15 11.9km</title></polyline><polyline fill="none" points="92.95027807203587,230.78964773641565 92.83229608050897,230.9698457170416 93.11652542374213,231.04441024254265 93.30958686443046,231.63470951036288 93.4007547669753,231.66577773421886 94.01747881356278,231.39237681980012 94.29634533898206,231.9826727112195 94.39287605934078,232.02616797138035 95.63168697035871,235.13289183519737 96.69888771188562,237.37584785793297 97.75,240.420171142483 97.72854872883181,240.56306420793408 96.4253840042511,241.07250631971328 96.37175582628697,241.23403585500273 96.47364936443046,242.22184176333394 94.09792108053807,242.4206435302549 92.06005031781388,242.476556410209 90.96067266952014,242.71884496316125 90.07580773308291,243.0667447884298 89.86665783898206,243.3214558996333 89.88810911020846,243.51404164197083 90.6120895127242,246.27229961177727 84.95967955508968,248.9558901232631 84.86851165254484,249.1670936146984 85.0937500000291,249.86902936668412 84.23033633476007,250.34112319711858 84.76661811440135,252.50276925010985 82.4445180085022,253.04938023467548 81.66154661017936,253.4096438828892 80.88930084748426,254.10531937923952 79.97762182203587,255.60844822744912 75.00628972458071,255.3351548325736 73.1882944915269,255.13639522967424 71.58481197032961,255.19850767527169 68.18478548730491,255.60844822744912 65.47119968221523,257.03079632408844 62.253509004221996,258.2667836367291 61.06296345338342,258.8257646374841 59.41657838982064,259.4282161949195 57.410884533892386,259.9747650306599 57.25,260.3225662820987 58.397643008473096,263.73215554752824 57.77019332628697,263.9122560499891 57.80237023305381,264.210352263588" stroke="#4dd2ff" stroke-linecap="round" stroke-linejoin="round" stroke-width="0.5"><title>2023-05-15 12.4km</title></polyline><polyline fill="none" points="103.23631069430849,265.2583408266146 102.67270458326675,265.08097987873043 102.71558765694499,264.8894295473656 102.32963999395724,263.5414678624875 102.57468612917,263.1441689106141 102.25,262.15091160760494 102.31126153381774,261.9735427402629 105.37433822418097,261.0866916222585 106.95488579638186,260.4339619787934 107.76966419603559,260.1998292016142 108.02083648464759,260.00117046987 111.64751928602345,258.55378259033023 113.46698684009607,257.53917411674047 114.48392830131343,257.14893614874745 114.61257752231904,256.80836304254626 113.29545454547042,255.3821950525089 112.16211617001682,253.11871419091767 109.94444864621619,250.1242783810958 108.70083950989647,245.14982398246502 108.38840568749583,244.24856521280162 107.92281803055084,243.34019809792517 107.95344879743061,243.15568457772315 110.62445167146507,242.79375278906082 115.40897746180417,241.71504294995975 120.86738012405112,241.36729739529255 122.30702616850613,241.10471286478423 122.63783845107537,240.82793350233987 123.24432763573714,240.99116249040526 125.00865980939125,240.51566828345676 126.5647027681116,239.29498169793078 127.34272424745723,238.9401269255177 128.73336106489296,238.67043608709355 130.4670624716673,238.1310512716518 133.0584253516863,237.74070438713534 137.48763424597564,236.74708424515848 139.80944637724315,236.43480069591897 139.91971713810926,236.25736623612465 139.84007714418112,235.90249595780915 138.902775676921,233.62418561885715 142.033240054443,232.71567967274314 142.07612312815036,232.46725801056164 141.56765239752713,231.4806603580655 142.75,230.92702388601901 142.6948646195815,230.5508324846378 142.2844123430841,229.96169846259 142.27216003631474,229.82683575505507 142.43144002420013,229.74165917337814" stroke="#4dd2ff" stroke-linecap="round" stroke-linejoin="round" stroke-width="0.5"><title>2023-05-10 12.0km</title></polyline></svg>