<?xml version="1.0" encoding="utf-8" ?>
<svg baseProfile="full" height="300mm" version="1.1" viewBox="0,0,200,300" width="200mm" xmlns="http://www.w3.org/2000/svg" xmlns:ev="http://www.w3.org/2001/xml-events" xmlns:xlink="http://www.w3.org/1999/xlink"><defs /><rect fill="#222222" height="300" width="200" x="0" y="0" /><text fill="#FFFFFF" style="font-size:12px; font-family:Arial; font-weight:bold;" x="10" y="20">Over 10km Workouts</text><text fill="#FFFFFF" style="font-size:4px; font-family:Arial" x="10" y="280">ATHLETE</text><text fill="#FFFFFF" style="font-size:9px; font-family:Arial" x="10" y="290">agassi_yzh</text><text fill="#FFFFFF" style="font-size:4px; font-family:Arial" x="120" y="280">STATISTICS</text><text fill="#FFFFFF" style="font-size:3px; font-family:Arial" x="120" y="285">Number: 19</text><text fill="#FFFFFF" style="font-size:3px; font-family:Arial" x="120" y="290">Weekly: 2.1</text><text fill="#FFFFFF" style="font-size:3px; font-family:Arial" x="141" y="285">Total: 301.9 km</text><text fill="#FFFFFF" style="font-size:3px; font-family:Arial" x="141" y="290">Avg: 15.9 km</text><text fill="#FFFFFF" style="font-size:3px; font-family:Arial" x="167" y="285">Min: 11.6 km</text><text fill="#FFFFFF" style="font-size:3px; font-family:Arial" x="167" y="290">Max: 33.1 km</text><polyline fill="none" points="13.26722063467605,70.17445698376105 13.200218077894533,70.03337946386455 12.920025567756966,69.892301656364 12.426643104234245,68.4109673125131 12.542374793178169,67.86780344085855 12.25,66.80967975916428 15.393029026919976,65.86440891886014 17.48838171150419,64.99672357067902 17.59802225898602,64.73571040196111 16.623439614952076,61.86450055078603 16.349338246363914,60.78512057344051 16.00214317938662,58.68980547704268 16.25797112347209,58.534594426411786 16.123966009938158,57.46221765113296 13.845879079541191,50.81593281384994 14.010339900734834,50.20207173543167 13.79105880582938,49.016669401964464 13.815423371939687,47.478438457183074 13.973793051583925,47.02684122238861 14.156527297309367,46.942166412467486 16.123966009938158,46.751647710902034 17.64675139117753,47.05506613599573 18.261956685222685,46.96333512466663 18.852797413128428,46.45528424269287 19.34008873513085,46.31415833509527 19.717739509709645,46.017792991377064 21.021243796072667,44.19017862900364 21.167431192618096,43.78795585352054 21.465897127374774,43.540975796524435 21.532899684127187,43.583315297546505 21.538990825676592,44.59945554204023 21.709542788361432,45.241592022168334 22.257745525654173,46.984503830375616 22.397841780708404,47.167965675158484 22.611031734093558,47.217359165559174 25.31549857123173,46.62463495153497 30.815799368312582,46.27182050662668 32.247217626689235,45.99662398964574 32.527410136855906,45.79198997197091 33.02079260040773,45.933116945532674 34.72022108588135,45.46739683939086 35.32324409682769,45.10752006297844 36.35873815609375,44.21840470079769 37.16885997890495,43.84440831408574 41.09155512106372,42.912936819309834 42.711798766686115,42.72946368154953 46.62231162577518,41.80503392497485 49.54605955781881,41.3675132411081 49.649608963751234,41.0711266881699 49.54605955781881,40.7112270223588 48.61411490448518,38.601189317669196 52.71954429234029,37.41558802450163 52.75,37.07684106189117 52.445442923752125,35.66537751017313 51.98251616783091,34.82554301623168" stroke="#4dd2ff" stroke-linecap="round" stroke-linejoin="round" stroke-width="0.5"><title>2023-07-18 12.6km</title></polyline><polyline fill="none" points="93.06866383881425,35.83093187865961 92.86466065747663,35.94911828031036 93.05255832450348,36.26635432951298 93.2189819724299,36.85105958045824 93.27803552491241,36.89460123625031 93.9329931071261,36.62091031122691 94.38394750794396,37.3175757010431 95.31269883352797,39.706082252909255 95.39859490984236,39.86158073394108 95.6348091198306,40.00463898588714 95.49522799576516,40.17257650508327 96.11797454932821,41.41654371103141 96.07502651115647,41.64045511012955 96.33271474021603,41.85814595904958 96.74072110286215,42.72890157515212 97.75,45.695596910511085 97.72852598089958,45.82620281906566 96.41324231176986,46.348623653579125 96.47229586422327,47.38101355843173 96.41861081653042,47.49917755235583 91.74801166489488,47.79147697380904 91.52253446448594,48.00914584482962 90.49178154824767,48.3014428198876 89.86903499468463,48.72433808920687 90.48104453869746,50.85120803352402 90.58841463414137,51.54771071063442 84.86022004243569,54.23414647509344 84.93537910922896,54.80002409564986 85.08032873808406,55.12959875042361 84.2911585365946,55.50269998260046 84.21599946977221,55.61462990691871 84.75821845175233,57.77234994374521 82.36386532342294,58.31954057940675 81.55322110286215,58.717494320415426 80.89289501591702,59.32063800693504 79.93193266174057,60.88754010992852 73.82794273595209,60.52690747925226 73.12466861080611,60.40876873983143 71.55706521740649,60.514471833248535 71.3745360551693,60.76940206930885 71.24032343583531,60.53934312271667 68.1480646871787,60.881322324032226 65.82350212091114,62.12486688690478 64.11094909859821,62.85854628305242 62.19439289503498,63.56112929455412 59.86446182397776,64.54348842847321 57.37884411451523,65.27713872478125 57.25,65.46365857934143 57.26073700955021,65.69369894761621 58.3612804877921,69.00121047662469 57.98011664900696,69.1566342375736 57.69558589608641,69.16906812134039 57.61505832450348,68.92038996440169" stroke="#4dd2ff" stroke-linecap="round" stroke-linejoin="round" stroke-width="0.5"><title>2023-07-18 12.5km</title></polyline><polyline fill="none" points="102.5747557953,42.79839611025818 102.25,42.96259334094793 102.49799533459009,43.7151588312845 102.7637046216696,43.97513403563789 103.4663580697088,43.708317364893446 103.73797200759873,44.310363730772224 103.87968362736865,44.44035030399391 104.36976964573842,45.712837120612676 104.79490450501908,45.760725937449024 106.28878116342821,45.20658182026091 106.76705788017716,46.164358890273434 107.69999271031702,47.217897850932786 108.03655780723784,47.87464102738886 108.27864849104662,48.798175226744206 108.13103222043719,50.82306491453346 108.50892987317638,51.726036532083526 108.72740195365623,51.78076169354608 109.40053214755608,51.45241005425487 111.00659717159579,50.91883520844567 112.08714827234508,53.27200514051219 112.75437381543452,54.40751688493765 117.92094328618259,60.77560274380812 118.60588278176147,61.47325099461159 120.44813383874134,62.94376029068371 121.42830587550998,63.572991623215785 121.94201049715048,63.668743699541665 123.62483598192921,61.589524997150875 124.15625455605914,61.097069016323076 126.60668464790797,63.11474765022285 128.0946566554776,64.17485954535368 129.45863099579583,65.34438289766695 132.8951377751946,67.95692862747819 133.18446566554485,67.86118267523125 136.58554453999386,65.37173992485623 136.7449701122532,65.36490066910483 136.88668173202313,65.54272109195153 137.01067939933273,65.42645394577994 137.70742819653242,65.98043089280691 139.24263741067261,67.48503653917578 139.96300481120124,68.61346861708444 140.28185595566174,69.37258496667346 140.87232103804126,70.13169272265804 141.06717451522127,70.60356618578226 142.1063930601813,70.20691914938652 142.54333722114097,69.9333681021526 142.65552558680065,69.9196905205099 142.75,70.07698254110437 142.6791441901005,69.82394737082359 141.0199373086507,67.77227559714083 138.56360256599146,64.12014450298739 138.23884677066235,64.04491124682681 136.9339189386228,64.9340261500547 136.76268406474264,64.94770474874531 135.7825120280031,63.65506483986246 135.47547018513433,63.01215528682951 135.28652135879383,62.252966917920276 135.2097608980839,61.30909911823983 135.24518880303367,58.826252965234744 135.80022598046344,55.95342363197415 135.7175608689431,56.28859339966584 135.93012829858344,53.81240168356453 135.912414346094,52.41009783802292 135.80022598046344,50.74781673043617 135.31013996209367,48.606628439236374 135.0739539291244,46.951094096417364 135.1448097390239,46.47905408148654 135.5168027409236,45.480233809081255 135.35737716866424,43.06521640571009 135.36328181950375,40.896415517665446 135.2688074063335,40.36959839105839 134.6311051173543,40.12329285823944 134.84957719783415,39.55541831674782 135.1920469456236,39.548576425455394 135.24518880303367,39.44594797200989 135.09757253242424,38.0570274346901 134.33587257616455,34.81382001761085 134.13511444817414,34.58117884815874 133.4678889051138,34.65644519734633 133.37931914275396,34.57433644859702 133.4796982067346,34.39643381422502 134.05835398746422,34.451173136694706 134.1114958448452,34.58117884815874 134.01111678086454,34.67012997899292 131.38354716432514,34.91645557071752 129.11025659713778,35.45015791057085 127.74628225687775,35.600688570630155 115.47641784514417,35.86753754536767 113.34483889778494,35.983855996411876 112.14029012978426,36.19596559283673 111.13059483890538,36.62018276993331 108.73330660446663,38.07071152136632 102.59246974778944,40.629586581861076 102.48028138215886,40.916940776398405 102.50980463626911,41.1221930176398 103.24198133838945,42.88049477590539 102.85817903483985,43.07205793778121" stroke="#ff7800" stroke-linecap="round" stroke-linejoin="round" stroke-width="0.5"><title>2023-07-12 23.1km</title></polyline><polyline fill="none" points="166.95695950233494,32.271885372199904 166.84362931150827,32.25 167.16945361011312,33.03239650231626 167.69832783390302,32.80807419817938 167.88248939396,32.92844238059479 168.00998585866182,33.30048777990669 168.1044276843313,33.33331519109197 168.3405322485196,33.84760867309524 169.09134476265172,35.7241908847318 169.36050396587234,35.60929998533902 170.03104092818103,35.00201542391369 170.47491750886547,34.81052787342196 171.21156374915154,35.61477098612522 171.59405314314063,36.59407112843837 172.75096550770104,36.23846141480317 172.85485151593457,36.2822288915595 173.4167803787277,37.85783424304827 173.8701011419762,38.64014885288634 174.93729377214913,40.89949685214742 170.24825712724123,43.213451876552426 170.19631412310991,43.64559789013583 170.52213842168567,46.51736579998396 170.97545918496326,48.8529569219354 171.07462310191477,54.59031205853171 169.0394017585495,54.59031205853171 168.4396961654711,54.67781701245258 167.63221855592565,54.94033101757668 166.69724448170746,55.421603356335254 165.44589029144845,55.37785150399577 162.8345738114731,54.86923360141009 160.59630254289368,54.81454321712954 160.478250260785,54.951269073244475 160.47352816950297,56.43335498585293 160.08159459294984,58.96538487611542 160.24686778787873,59.29896953640855 160.09103877551388,59.342718190437154 160.06270622782176,59.501306762242166 160.1902026924654,62.476122748325 160.3601979787054,62.63470205786143 160.30825497457408,62.694852707838436 160.35547588739428,62.85343137088785 160.52074908235227,62.88624069094294 160.56796999520157,62.984668530705676 160.54435953876236,63.307291850698675 160.34603170485934,63.58616807261933 160.39325261767954,64.17125661201862 160.68130018599913,65.07895143941278 161.04490121486015,65.77338229595989 161.4651673391345,65.9975667166218 161.57377543865005,66.50061127636218 161.87126718953368,67.09660361927672 162.5512483344355,69.1907260639382 162.6693006165442,70.7161580786451 163.3398375788529,72.28528484763956 163.42011313067633,72.75 163.56649796047714,72.75 163.4106689481123,72.739065572041 163.35872594398097,72.32355565925536 162.67402270782623,70.74896259204252 162.5229157867143,69.06497166965346 161.84293464184157,66.95990871272443 161.64460680793854,66.69198568590582 161.43211270013126,65.95382348856947 161.0071244845749,65.7187030269015 160.4074188915256,64.29155439947135 160.34603170485934,63.52601842186414 160.56796999520157,63.27995096661107 160.58685836030054,62.957327482217806 160.29881079201004,62.74953505839221 160.18548060118337,59.29350095213522 160.6010246341757,56.471637105205446 160.53491535619833,55.03877343822023 162.5229157867143,55.033304419586784 165.55922048230423,55.585672484707175 166.71141075558262,55.61301729063416 167.76915920316242,55.03877343822023 168.48219498703838,54.82001225807835 173.49233383929823,54.85829552901123 173.63871866909903,54.72703848630408 173.73316049476853,54.486399740311754 173.7237163122045,51.32518140249158 172.82651896824245,45.86097527054153 172.46291793938144,44.11056122872833 170.36630940932082,38.120430630362534 169.9979862891778,37.26698766602567 169.71938290342223,37.13568754184962 169.91771073735435,37.048153946980165 169.22356331863557,35.61477098612522 167.9580428545305,32.539980456087505 167.82582429857575,32.63846402745912 167.88248939396,32.906557276633976 167.7644371118804,32.83543062702665" stroke="#ff6b00" stroke-linecap="round" stroke-linejoin="round" stroke-width="0.5"><title>2023-07-06 24.1km</title></polyline><polyline fill="none" points="12.25,120.04827502693661 12.467061188013759,120.12508123655425 13.419718624383677,120.06223979872448 13.53427869582083,119.98543351867556 13.250893255928531,119.47571693242207 12.913242518960033,118.1141266315608 12.708240285806824,117.70215295075468 12.810741402383428,117.0527656769118 12.49720857522334,116.13802692208992 12.545444394781953,115.97043987189682 15.39135774897295,115.14646424398961 17.055493523861514,114.46213796691882 17.929767753434135,114.2317000285475 19.47331397945527,113.50546630196914 21.330393032578286,112.82810675031942 23.69394819115405,111.48733406736574 24.471750781609444,111.17308667243196 24.61042876285501,110.99850416320987 24.550133988377638,110.7680545694966 23.42865118352347,109.56691079783195 22.403640017844737,107.49279316762113 20.61891469405964,105.1532248085714 20.02802590437932,104.22435907853651 19.768758374266326,103.22563975919911 19.798905761475908,102.79960820346605 19.593903528351802,102.63897266621643 18.74374720855849,99.08394189707178 18.1709468512272,97.83370054858824 17.206230460025836,96.1783179244012 16.874609200516716,95.13058671045292 16.868579723057337,94.0409292305776 17.18211255024653,93.00713558107964 17.628293881192803,92.3016322995827 18.882425189804053,91.03031099135842 19.599933005782077,90.01044275556342 19.91949531037244,89.07438592591643 20.07023224653676,88.06845983174571 35.168043769546784,87.48166277928976 36.03025904422975,87.62137681974127 36.80806163465604,87.9217610405176 38.110428762825904,88.8089346432098 38.405873157666065,88.89974704004271 38.58072800358059,88.82989136088145 44.845355069235666,82.37491876344575 45.33374274231028,83.16435827945679 45.38800803932827,83.40188697000849 46.93758374277968,85.05757875116251 47.208910227782326,85.1553820752888 49.38555158552481,83.1713444292036 50.57335864225752,84.95278932013753 50.820567217539065,84.92484544472245 51.79131308619981,84.35897951180232 51.905873157666065,84.39390964324411 51.88778472531703,84.30309126442444 52.18322912012809,84.14241229879553 52.75,83.93283047203295 52.55102724430617,83.26216431076318 52.33396605629241,82.90587023774424 52.611322018754436,82.67532602495339" stroke="#4dd2ff" stroke-linecap="round" stroke-linejoin="round" stroke-width="0.5"><title>2023-07-04 13.7km</title></polyline><polyline fill="none" points="92.83779085316928,84.5059897613537 92.79987964697648,84.41813643980277 93.03276277077384,84.85740179127606 93.1140010698,85.25273792223015 93.29272532759933,85.43471719099398 93.95887937952648,85.25273792223015 94.5979539983964,86.45755615509188 94.79292591600097,87.14780595570846 95.67571543192025,89.22478358456647 96.15772933940752,90.19108761546886 96.4664348756487,90.29775660967425 96.28771061779116,90.44834781570171 96.72098154586274,91.41463260668752 97.75,94.38241233033114 97.66876170100295,94.5016224755127 96.70473388605751,94.76513881807477 96.40144423642778,94.9659124159989 96.33645359720686,95.12904048142082 96.45018721584347,96.13289596979303 94.00762235891307,96.35876119532622 91.90084247128107,96.4215013884641 90.67685209951014,96.71637943845053 90.00528216100065,97.07399560102567 89.77781492378563,97.45043141928545 90.52520727465162,100.21716395124531 84.79519925115164,102.94613188974836 84.75187215831829,103.28489187248488 84.93601230272907,103.85576095420038 84.07488633325556,104.32625346612258 84.59481144690653,106.54065654653095 82.39054560044315,107.04876611938016 81.44276544530294,107.47532400088312 80.7657796202111,108.1088824526887 79.74217705268529,109.68961369893805 74.26671569939936,109.3759797775565 72.91274404921569,109.20661679501791 71.41795934739639,109.28816199295761 71.10925381118432,109.5767056714867 71.00635196577059,109.33834359951288 67.88680128374835,109.68334103619054 64.96222251941799,111.20130676960252 61.97806900241994,112.36170985593344 61.89683070339379,112.75686915385813 62.173040920024505,113.56599693918542 62.080970847804565,113.66008087470618 57.51537844343693,115.38492752744423 57.271663546416676,115.75497923629155 57.94323348486796,117.85607810078727 57.352901845413726,118.08186356019723 57.293327092775144,117.89998089389337 57.3745653918013,117.85607810078727 57.293327092775144,117.90625271891258 57.25,117.81217527635454" stroke="#4dd2ff" stroke-linecap="round" stroke-linejoin="round" stroke-width="0.5"><title>2023-07-04 12.5km</title></polyline><polyline fill="none" points="102.61807210964616,118.65068408138177 102.60600417165551,118.49695131534827 102.52152860551723,118.74851384388603 102.67237783074961,118.72056249740854 102.67841179980314,118.36418183083879 102.39481525626616,118.08466628602037 102.25,117.35792053510522 102.52756257454166,117.14828090577066 104.88684445770923,116.42152522639662 107.70470798571478,115.36631816723093 107.81331942789257,115.40824723449623 108.2175953516271,115.14269604194851 111.25268176404643,113.9966211977735 111.30698748512077,113.67515773871128 114.52912693686085,111.97696705136332 113.46714839094784,110.85879382736312 112.96029499405995,110.0201519350885 112.36896603100467,108.60142603146232 110.12432955901022,105.61012441207276 109.88297079858603,105.0370096605402 108.75461859357893,100.34707342550973 108.04864421932143,98.76039040850446 108.05467818831676,98.59962311798154 110.70359058404574,98.20119820631226 115.4704261025181,97.14571048229845 120.70791120378999,96.81717787103844 122.31294696067926,96.51660410144541 122.52413587606861,96.32787106021715 123.19390643623774,96.42573270208231 124.80497616209323,95.99234436931147 125.48078069131589,95.55196309265739 126.41001191895339,94.74808520510851 127.07374851012719,94.43352172370942 128.50379916568636,94.16788921407715 130.79670738975983,93.51079384186596 132.70344159714296,93.30807165638544 133.80765792611055,92.93757783557521 136.48070619787904,92.35736650328909 139.4976907032251,91.92395242045313 139.55803039335296,91.72821612890402 139.44338498212164,91.28780742698291 138.65293504172587,89.5960524202601 138.55639153756783,89.18359341491305 138.87619189510588,89.02280363794853 141.68198748512077,88.23283098735556 141.69405542314053,88.08602090621571 141.16910011920845,87.0583415225774 142.31555423125974,86.55498272610566 142.33969010729925,86.31728423004097 141.86904052444152,85.45736807055073 142.75,85.05886667499726 142.33365613824571,84.04512459688704 142.36382598330965,83.9122883154414 142.68966030990123,83.75148615611397" stroke="#4dd2ff" stroke-linecap="round" stroke-linejoin="round" stroke-width="0.5"><title>2023-06-28 12.2km</title></polyline><polyline fill="none" points="187.75,86.7140048928959 186.2268073547748,87.30877662033527 185.5103426660935,87.48524628957603 179.9309444212122,88.26301421978496 179.69964479730697,88.46562448205441 179.64887170912698,88.63555517530403 180.10582950268872,90.1779823773577 180.2186585875461,90.98839533706996 178.38518595902133,90.94264649159231 175.64343919762177,91.41320448404076 173.99613455910003,91.4850949838692 173.82689093187219,91.63541122269453 173.74791057247785,91.49163047985712 170.46458420390263,91.66808861924437 171.40670706224046,91.641946703352 171.55902632678044,91.83147535169337 171.89187212698744,92.92288802955954 172.12317175092176,94.1841980705176 172.202152110287,95.73302667315511 172.59141245298088,96.87665244267191 172.49550773086958,97.0727005239496 171.0005223568587,96.73288346828122 170.3348307563283,96.7786281769695 165.97398662765045,97.83728230645283 162.76399916422088,98.84364099488812 161.95162975345738,99.01354414825983 159.48067279561656,99.14423857492875 159.2268073547748,99.07889139494 158.80369828664698,99.18344685092961 157.33127872960176,99.27493273490472 156.51326786458958,99.24879392425282 153.71510656076134,99.41869600284917 153.65305056414218,99.70622157062826 153.72638946925872,100.12443827418247 154.11000835767481,101.10462297289268 155.93783953195089,103.58115615313363 156.4117216882296,104.31952350678694 157.29178854989004,106.07066161222974 158.14928959464305,107.14222998072 157.27486418720218,107.48199181880409 155.4470330129261,108.48166523919281 152.2088382783113,109.76880347140468 152.03959465105436,110.14121935548974 152.37244045129046,111.11471732001155 147.4925825323735,112.89833629426357 147.30641454237048,113.12046851450941 147.28949017968262,113.36219976171196 147.97774759714957,115.49854168976526 147.35718763055047,115.78599510709682 147.25,115.43974424101543" stroke="#4dd2ff" stroke-linecap="round" stroke-linejoin="round" stroke-width="0.5"><title>2023-06-28 13.0km</title></polyline><polyline fill="none" points="12.570523138798308,166.39600029508438 12.255432595527964,166.5092410419129 12.956237424514256,166.5092410419129 13.499496981879929,166.05627680803445 13.47233400400728,166.15064463089584 13.320221327972831,166.1003151433215 13.043158953689272,165.6913865354254 12.3749496981618,164.03677081541173 12.52162977863918,163.58378843508035 12.25,162.70927137848048 12.336921529145911,162.55827437308108 15.237927565351129,161.70890933343617 15.835513078432996,161.41320172421547 17.030684104625834,161.01682547204837 17.07414486919879,160.75886495609666 17.177364185103215,160.69594759352185 17.291448692121776,160.85953260282622 20.235915492929053,159.68296922443915 22.425251509033842,158.51267537297463 23.136921529163374,158.2735803499745 23.234708249481628,157.9967323236633 23.41398390341783,158.17920048057204 25.282796780666104,157.88976798081785 26.347585513081867,157.8645998731845 26.543158953718375,157.61291823227293 26.61378269616398,157.83943175530658 28.248993963788962,157.75134326184707 34.844164989946876,158.2106604530709 35.14839034204488,158.00302433806064 36.21317907443154,156.21606646304645 36.74557344065397,155.8007801081767 37.332293762563495,155.50504418153287 38.92947686117259,155.1715530315705 39.84758551308187,154.86322942112383 39.885613682097755,154.7059208628998 39.36951710260473,152.57906977898165 40.17354124749545,152.14488110633465 39.97253521127277,151.79878649701277 40.227867203211645,151.57854346175372 45.329074446693994,149.0425455629629 46.741549295780715,148.55169521493008 48.930885311885504,147.30567293874265 51.84818913482013,145.83936195271963 51.984004024154274,145.53099168556946 51.924245472822804,144.58699148522646 51.54396378269303,141.72343579390872 52.663078470824985,141.55980002283468 52.75,141.25770207359164 51.739537223329535,138.54504790869032 50.90835010059527,136.83935040172219 50.61498993964051,136.6757016648735 49.620824949699454,134.19574069779628 49.18078470826731,133.49075895808346 48.50714285712456,133.70477212442347" stroke="#4dd2ff" stroke-linecap="round" stroke-linejoin="round" stroke-width="0.5"><title>2023-06-21 12.3km</title></polyline><polyline fill="none" points="94.35870464894106,132.57174285965812 94.74420609738445,133.4909685931234 94.42016140156193,133.5427555616734 94.77772796247154,133.562175663963 95.39788246655371,133.2514533131798 95.55431783694075,133.34208082285113 96.10742861087783,134.4490206614537 97.2583459787711,137.33603594457963 97.75,138.3458129418359 97.67178231480648,138.462324637243 95.69399227478425,139.1743359006723 90.56514691683697,139.95106634041076 89.88912263759994,139.98990261259678 89.63770864947583,140.248810485813 89.45892536905012,140.14524746340976 86.218478410854,140.88313030659265 83.13446682301583,141.31679428654388 80.1342598979536,142.0934984784726 79.58114912401652,142.33945282232162 78.32407918336685,143.35562249739087 76.82118223205907,143.74396329504452 76.70385570425424,143.79574188837432 76.5865291764494,144.0869956879542 75.89374396469793,143.9316604946689 73.78186646435643,144.29410868707055 68.96030486962991,144.62419363121444 64.54659263347276,145.62738242461273 62.362084425461944,145.96393252912458 62.33414953786996,146.2681205098961 63.06604359226185,147.76315086655086 63.80911160161486,150.97314026570893 64.39574424060993,152.63631684800566 64.70861498138402,153.16697101687168 66.44616498827236,155.45779294718523 67.60266933371895,157.69676495683598 68.40719409575104,158.63503898210547 67.68088701891247,158.94563698204365 66.27855566286598,159.75447880533466 64.28959166785353,160.5956633647038 59.87587943166727,162.3491737888653 57.39526141536771,163.06738731891892 57.26676093257265,163.27443835878876 57.25,163.5138402815719 58.38415643540793,166.8977222206595 58.350634570320835,166.98183171100027 57.80869775143219,167.18886998166636 57.814284728927305,167.42825714033825 58.09922058216762,167.3506181607736" stroke="#4dd2ff" stroke-linecap="round" stroke-linejoin="round" stroke-width="0.5"><title>2023-06-21 13.2km</title></polyline><polyline fill="none" points="142.75,135.28257950880652 136.86623696409515,136.17288207555248 136.5435979142785,136.13890128013009 135.35863267673994,136.51268907568738 132.96523754348163,137.0088041808267 129.6977838933817,137.51171160952072 126.31887311703758,138.34761690279265 125.5328070683754,138.7349840894094 124.4065034762607,139.6864027003976 122.79330822711927,140.11453663942666 122.32401506372844,140.4271406336411 121.81365874854964,140.28443029663322 119.54931923522963,140.6717862139849 115.31981460025418,140.89604387290456 112.41606315181707,141.4940606037926 112.23421205100021,141.80665812087682 111.9936993047595,141.60279034140694 107.58820973351249,142.45223530433577 107.53541425260482,142.676486966433 108.36840961762937,144.40931525293126 108.9667584009294,146.8487892376579 109.2190034762607,148.0311205217513 109.16620799538214,148.1262497127027 109.35979142526048,148.425226285377 109.64136732331826,149.28817386530136 110.15172363846796,150.13752080158156 112.1286210892431,152.78741363513836 113.18453070684336,154.81213249929715 113.97059675553464,155.74973314029194 111.57720162227633,156.9794647029048 109.49471320974408,157.87627119878016 104.80178157589398,159.717404282208 102.40838644263567,160.36280789633747 102.25,160.84515809462755 102.56677288530045,161.79626093192928 102.53157589805778,161.95251224269305 102.84248261878383,162.5707203581769 103.43496523756767,164.48644974588387 102.78382097335998,164.7174204911862" stroke="#4dd2ff" stroke-linecap="round" stroke-linejoin="round" stroke-width="0.5"><title>2023-06-16 11.7km</title></polyline><polyline fill="none" points="155.04568966495572,129.75 155.15261000508326,130.51975965830206 155.6261143685988,131.51511825435955 158.00509193680773,134.58952600314296 158.65043256124773,135.03629229046055 161.6976622553775,137.52217506582383 162.62175948089862,138.18564281016734 164.45086101409106,139.68504251239574 167.15823676990112,141.76377048812355 167.6164667990961,142.3608335069548 168.0861525789951,143.3691879414182 168.72767461987678,143.91758138813748 169.03316130599706,144.2934922452514 169.87324969284236,146.36315485284285 170.52240890085523,147.57041244030552 171.10283360451285,148.44598483673326 171.7519928125257,150.086529988228 172.8861121347727,151.38654058479733 172.97775814062334,151.67395263642902 173.065585562872,152.4963827595675 173.40543950119172,153.97760200118864 174.1271517971618,156.6790388664922 174.3066252252611,156.82493819998126 174.17297480007983,156.88683473878336 174.60447474423563,158.92052907034667 174.84122692597157,158.9647387586847 176.66269129201828,158.86305640819046 176.71615146208205,159.56156514535178 176.66650987559115,158.87631933697412 179.52662897446135,159.01779032526974 179.64500506532204,161.08233011216726 179.55717764305882,161.70565152604104 179.7099209861335,161.80732721994355 179.74810682190582,163.78332495773793 179.80538557554246,164.26957459884943 179.9352174171363,164.46407293100856 179.85884574563534,164.3889259513744 179.8130227427173,165.1713322512951 179.89321299782023,166.17031641958238 179.84738999488764,166.7316823959627 179.81684132629016,166.7714639615515 179.5495404759131,166.62117785599548 179.3356997956289,166.62559804298144 179.64118648174917,166.66095952276737 179.86266432919365,166.84218665484877 179.6831909011089,167.88091294824335 179.75192540546414,167.95605388699914 179.95431033504428,167.97373408898056 179.80156699198415,168.36711672222373 179.66791656678834,169.14503144283663 179.56099622664624,169.34834776702337 179.5762705609377,169.82569539765973 179.48462455511617,170.13066474940206 179.53044755804876,170.25" stroke="#4dd2ff" stroke-linecap="round" stroke-linejoin="round" stroke-width="0.5"><title>2023-06-14 14.3km</title></polyline><polyline fill="none" points="13.034341690450674,216.30788538478373 13.25930791173596,216.2304334225919 13.514674973732326,216.28676213097788 13.01002101789345,215.88541908132174 12.748573787743226,214.67433469151 12.359443026594818,213.88571018524817 12.462805885006674,213.78009014802956 12.554008407139918,213.2801531137302 12.25,212.2591437036026 12.310801681422163,212.1253551452246 15.03471700946102,211.36486788989714 17.709990992356325,210.3790386140172 21.011522293963935,208.97772849652392 21.193927338230424,208.6608453821973 21.376332382526016,208.85801726868522 23.662475604272913,207.625683741775 24.37385527699371,207.32287842368532 25.310201171028893,207.09753406936215 29.52983786218101,206.72430586487462 37.57998048342415,207.27358440899843 37.89614922684268,207.04119786588853 39.124343191680964,205.00602169288322 39.67155832456774,204.576443968479 40.334296652144985,204.23841371616436 42.31035129862721,203.77361941695563 43.22845668820082,203.4496700246891 42.541397688008146,201.0340864135287 43.5385452634946,200.42841662833962 43.12509382975986,199.5903299059064 43.3014187059016,199.4072171667358 42.45627533402876,196.95627681834594 42.37723314817413,195.75894673004223 41.31320372314076,190.47636011776194 41.38008557271678,190.40592289769847 41.23416153731523,190.17347956142476 41.05175649301964,189.41275044069334 41.057836661173496,188.33503649574413 42.80892508631223,188.1378059777344 43.5385452634946,187.87717907134356 47.28392883951892,187.0530280506573 47.37513136168127,187.12346869362227 50.90162888454506,186.62333857141493 51.04147275185096,186.2993086695351 50.99891157480306,185.6864653462544 50.58546014109743,183.48159319076512 52.68311815042398,182.85463584382524 52.75,182.7067012569023 52.42775108842761,181.19211461521627" stroke="#4dd2ff" stroke-linecap="round" stroke-linejoin="round" stroke-width="0.5"><title>2023-06-12 11.6km</title></polyline><polyline fill="none" points="95.63933828406152,184.36420836487014 96.21399681741605,185.47799903293344 96.52549396629911,185.6273325468319 96.34826282985159,185.78288790133956 96.87995623922325,187.08953720281716 97.75,189.6467554832525 97.73388807851006,189.75252619139428 97.07866993764765,190.00761949702064 96.6866131812858,190.05739367608476 96.4073398753535,190.23782473443134 96.47178756134235,191.41994604162392 92.11619811697165,191.68747557721144 91.12800026522018,191.88656656257444 90.08609600848285,192.25363886214473 89.84441718604648,192.46517104781014 87.33095743268495,193.75923432028867 81.94420501260902,195.37055355536722 81.21379790481296,195.31456248150062 80.27393581753131,195.08437641534329 79.58649383371812,195.14036770061284 75.75722715820302,196.05488474764934 71.4231202758383,197.31154566078476 68.94725500597269,197.3550928518598 67.16957300092326,197.52928130514556 66.60565574857173,197.4670712003899 64.02237766876351,197.64125933377363 63.85051717280294,197.715911238618 63.71625116033829,197.8900986611152 63.759216284321155,198.2695766800789 64.14590240019606,199.25247597815178 66.1813751491718,202.08910916286914 67.23939132739906,204.1294128535992 67.96979843522422,204.99403315618474 67.07290147192543,205.37968718024786 65.2468837024353,206.3624718945357 62.38433231669478,207.46964076991208 62.1533947752323,207.45720078180966 62.013758122280706,207.65002031226322 60.86444105557166,208.14139635999163 59.49492772840313,208.64520819817335 57.36278345048777,209.24231313709606 57.25,209.63416007723208 58.33486938072019,212.9554283111138 57.781693409371655,213.1357916351335" stroke="#4dd2ff" stroke-linecap="round" stroke-linejoin="round" stroke-width="0.5"><title>2023-06-12 12.8km</title></polyline><polyline fill="none" points="123.25187805629685,179.2622782396502 123.33176509977784,179.3548398551502 123.7358995550021,179.20783015546476 124.17292867522337,179.80131127254936 125.0516861534852,182.15339163620956 126.29698418418411,184.76669256877722 128.43513740671915,191.00543071493667 128.9614520461182,194.38580336954328 128.85806881336612,194.49466849385863 127.35431270083063,195.12063864774973 127.04886224048096,195.17507048797052 126.95017824557726,195.29482034095417 127.03946376475506,200.9282029030146 125.23025719184079,200.9282029030146 124.46428142199875,201.00439917059703 123.848681263451,201.184004228071 122.93702912019216,201.66839061235441 122.5986839949037,201.7554708444477 121.41447605626308,201.69560320014352 118.73591048078379,201.20033193060226 116.66824582603294,201.1676765205484 116.49437402552576,201.3472810285566 116.52256945264526,202.8330769592103 116.07144261887879,205.39094375940113 116.20302127872128,208.92821718153937 116.39099079280277,209.12956261904765 116.63065192321665,209.2329559270147 116.59305802042945,209.58122664936673 116.38159231710597,209.87507830443064 116.44268240916426,210.4518935172382 116.60245649609715,211.00693623570623 117.04418485416682,211.99185077962102 117.51880787720438,212.31289634618952 117.63628882350167,212.83527144813343 117.86185224039946,213.25969745618931 118.5385424910346,215.27839550110366 118.6983165779966,216.94879684295665 119.41260073144804,218.66267226596756 119.44549539638683,219.0 119.62406643477152,218.92382940753305 119.44549539638683,218.98367773931386 119.38910454217694,218.5919419871061 118.72181276723859,217.02497025163393 118.5808356316993,215.44162920552844 117.86185224039946,213.24881478016687 117.66918348844047,212.99851261964432 117.51880787720438,212.3074549119956 117.52820635290118,212.38363494036457 117.44831930942019,212.23671621691392 117.02068866492482,211.9646434395072 116.69174201527494,211.2518061892115 116.43328393346746,210.41924376589304 116.39569003062206,209.80433638711474 116.59775725827785,209.54857636564702 116.61655420967145,209.20574718116768 116.46617859840626,209.05881971401323 116.47557707413216,209.14044613456645 116.39099079280277,209.1241208604406 116.36279536568327,208.99351848769948 116.23121670584078,205.4671336566389 116.64474963679095,202.70790160815886 116.62125344751985,201.39082142432017 116.42388545774156,196.36167080426094 116.31110374932177,195.73571521052145 116.03854795391089,194.9627859970933 120.62970333502744,192.63848772770507 121.52725776471198,192.36631503068566 123.56672699234332,191.21228736849662 126.11371390798013,189.93302941446382 126.24059332997422,189.70983658545447 126.01502991307643,187.84260144876316 126.01972915092483,187.74461062748014 126.22179637855152,187.63028777509317 126.17950323788682,187.53774052462904 126.09961619440583,187.60851196591466 126.13251085937372,187.401641335131 126.22179637855152,187.45063708336238 126.18890171361272,187.33631360080108 126.09491695655743,187.51052071451704 126.17480400003842,187.72283486496963 126.03382686449913,187.71739092296048 125.98213524813764,187.59218010317272 125.81766192329815,186.38905246007198 126.79980263431207,186.22028577827587 126.87968967779307,185.93174795609957 126.18420247576432,184.09160209791298 125.47931679798057,182.63250639595208 124.78382959595183,180.92836272914428 124.53946922763134,180.80858061413892 124.17292867522337,179.86664823949104 123.8063881227863,179.26772304502083 123.18608872636105,179.40384299827565 122.87123979028547,178.63612191369975 123.10150244503166,178.5" stroke="#ff8700" stroke-linecap="round" stroke-linejoin="round" stroke-width="0.5"><title>2023-06-06 21.8km</title></polyline><polyline fill="none" points="154.7482019040035,178.5589313874043 154.79588406067342,178.5 154.85310264865984,178.63627868720505 154.69098331600253,178.62522908311075 154.69416212645592,178.7578241088304 154.90714242620743,179.24400169835644 155.26952681681723,179.20717029227308 155.25363276459393,179.2918824700282 155.33946064658812,179.20717029227308 155.39032161368232,179.2513679750591 155.32356659436482,179.08562638527292 155.35217588837259,179.05247797589982 155.70184503721248,179.84434831356702 156.03562013381452,180.80930168507984 156.59191196149914,181.9841528064353 156.56966028839815,182.05412705750132 156.70952794793993,182.22353784001461 156.9352234894759,182.7317654134058 157.5296610424848,184.48104471236002 157.68860156468872,184.51050553209643 158.26078744459664,184.24903991610336 158.6931056649919,184.32269239402012 158.86158261851233,184.30427928864447 159.3352253746707,183.96915912858822 159.7611859741446,183.85131393682605 160.19350419453986,184.73514349152538 163.3595993967465,188.59796105806527 164.61840833254973,189.59950115551692 165.19695183334989,189.95666130528116 166.4017209916201,191.0354844196263 167.39986747103103,191.78659137014984 168.76357715147606,193.1967156362589 168.89708719014016,193.54647683721487 168.99245150345087,194.43375057731828 169.04967009145184,196.311311912792 169.3993392402772,201.34711203694314 169.61549835046753,201.39864437397046 170.54371100012213,201.30294140383558 170.6327176925406,202.43295645125545 170.55960505233088,202.63907916284734 170.55960505233088,203.0402789258369 171.49099651240977,203.00347179374148 171.62768536149815,204.99836429703646 171.67536751816806,205.108779484588 171.7580165897234,205.13454297981662 172.6576199453557,204.74440808527288 174.87642963526014,204.03773792877473 175.1180192289903,204.58614461581237 176.00490734285268,205.39217692173042 176.64384824209264,206.23867551309377 177.12066980868985,206.59567114850506 177.13656386091316,206.70976179356148 178.23007465364935,206.31228314920008 178.28729324163578,206.40429248350483 178.43987614293292,207.28388989565792 178.50980997271836,207.37221648648847 179.79087058162258,207.30597156359 180.17232783490908,207.33173349248682 180.27087095867319,208.2517903427397 180.25815571690327,209.52879043960274 180.30901668399747,210.106553758651 180.26451333778095,210.16911356396668 179.92438062027213,210.1359936805202 179.5206716938992,210.43039158063402 179.39034046570305,210.4487913697958 179.26318804791663,210.66222823961652 179.17418135549815,211.04861936744055 179.21550589127582,211.9060249308095 179.00888321241655,212.29240276616474 178.74186313511746,213.00995064930612 178.31908134608238,213.63549359633544 178.45259138471738,214.91966256043452 178.4176244698465,215.14043200068772 178.2141806014115,215.4973397452777 177.8994783674716,215.78065575648725 177.7882200019376,216.03821384080584 177.77550476016768,216.29209072890808 177.45444490530645,216.70785627653095 177.43219323222002,216.90285970994591 177.51484230374626,217.65710837598817 177.16517315490637,217.75276805858448 176.50080177212658,217.84106907953174 176.0494106890692,217.73437198541797 175.73788726556813,217.760126485231 174.81285342636693,217.96984101535418 174.4886147610814,217.98455777882555 174.21523706290463,218.08757495553073 172.76569950045086,218.88226902934548 172.51139466493623,219.0 172.38106343672553,218.98896273778155 171.20490357246308,217.08682424944345 169.6758957488928,215.7880145843519 169.36755113584513,215.25449568346085 169.38344518806844,215.05580387454756 169.4915247431636,214.87182900407788 170.3688764256949,213.97769780583621 169.94927344709868,212.50214900485662 169.761723630887,211.17373560944543 169.71722028468503,209.74223274130054 169.5487433311646,209.27854613609816 169.7935117353336,208.4321187403766 169.761723630887,207.87272975730957 169.87298199643556,207.4311007604556 169.8284786502336,206.84593402745304 168.16913959846715,206.22027358065316 168.5188087472925,205.16766744667984 169.09417343766836,203.73960731125044 169.05602771232952,203.69543960313968 168.67457045905758,203.66967508180824 168.49655707420607,203.5923814075868 167.27589386371255,202.8415199670817 167.54927156188933,202.3924679232805 167.590596097667,202.19370540058662 167.73046375720878,202.1495358025859 167.73364256764762,201.93604865097586 167.65099349609227,201.97285687057592 167.74953661985637,201.94341029789211 167.5874172872136,201.90660204829692 167.5429139409971,201.6967943094678 167.66052992742334,201.26245160938197 167.55562918278156,200.50786077210068 167.43165557546308,198.39860374412092 167.40304628146987,198.36179188210008 166.13152210388216,198.54585081696132 165.69920388351602,198.50903910503257 162.86688377791143,198.60106831450685 162.809665189925,198.58266249137523 162.76834065416188,198.46486500118408 162.39641983220645,196.94818799486893 162.25655217266467,196.77148361823492 159.50052351776685,196.87087993649038 159.26211273446097,195.43144728610423 159.30025845978525,191.9927748577902 159.12860269578232,191.8749558661948 157.56462795737025,191.88600141299685 157.4851576962683,191.849182910526 157.48197888582945,189.9308869798151" stroke="#ff0000" stroke-linecap="round" stroke-linejoin="round" stroke-width="0.5"><title>2023-06-04 33.1km</title></polyline><polyline fill="none" points="31.79407320707105,227.25 31.789303431432927,227.96292046910457 31.88469894399168,227.53737992382594 31.97055490530329,228.09002933351076 32.09456907163258,227.741860863287 32.39983471180312,227.9187086201964 32.805265640170546,229.02399400575086 32.93404958216706,228.9632038962809 33.13438015853171,229.04609948319558 33.29178275424056,228.99636214628845 34.350672943663085,228.44924842289402 34.751334096392384,229.34452254462667 35.82453361270018,229.12346858307865 36.435064893070376,229.05162585113794 36.506611527496716,229.10688949956602 37.42717822367558,231.84789564172024 39.27308139170054,235.59997533874412 41.24299872605479,238.05885556998328 41.5816527956631,238.5837705916856 41.3908617705456,238.6887529853011 39.416174660553224,238.96502146945932 39.420944436162245,239.30206711107894 40.62292789440835,241.90443085067818 39.33508847487974,242.4182585868948 37.446257326198975,242.744232795063 35.30939784485963,243.53982262357022 35.242620986071415,244.1365073246634 35.25216053731856,246.43478696788952 35.352325825515436,249.36826665998524 33.501652881881455,249.37931524741725 32.56677685878822,249.49532527940755 31.856080290221144,249.7439173685234 30.940283369651297,250.32948533677336 31.388642278674524,251.6331799676118 31.684368367597926,253.1357043579119 31.6986776945123,253.68809255562883 31.837001187726855,254.13552286769482 31.879929168353556,255.6711197903387 32.37121605806169,257.27847858885434 32.20904368668562,257.3337134391113 30.00540734655806,257.0906796768868 24.572632906318177,257.32266647355937 24.424769861856475,257.67064480664703 24.124273997265846,257.61541029975706 23.570980024465825,257.681691701262 23.418347204336897,257.7424495813939 23.42311697997502,257.8584417089114 23.570980024465825,258.02966772912623 23.76654082519235,258.0572847784788 23.952562074671732,257.8694885652294 24.281676593003795,257.8197776939887 24.35799300306826,258.0849018137851 24.391381432447815,258.8747430667572 24.224439285491826,259.0238726408861 24.219669509853702,259.1343387275483 24.405690759333083,259.2945141532982 24.367532554315403,259.47125890132884 24.43430941310362,259.73085170509876 24.763423931435682,259.72532846689137 25.025761590979528,260.1616625505667 25.173624635470333,260.62560886250503 25.62675332010258,260.8796730172726 25.71260928141419,261.0619356990683 25.798465242725797,261.6087200674556 26.036954024108127,261.92353280794487 26.70949238765752,263.9891008772356 26.866894983366365,265.65143941459246 27.572821776295314,267.3468617691142 27.610979981342098,267.7168654639245 27.69206616698648,267.75 27.610979981342098,267.69477576196005 27.568052000715397,267.35238423087867 26.847815880842973,265.5906903985415 26.728571490151808,264.04985168788335 26.02264469722286,261.9069637619141 25.827083896496333,261.6363352932967 25.641062646987848,260.9128117322689 25.168854859803105,260.60903941974175 24.69187729700934,259.537538033248 24.55832357943291,258.96863951312116 24.524935150053352,258.4052583948287 24.720495950779878,258.17879962855295 24.74434482891229,257.80320739343006 24.50585604752996,257.4994176521286 24.35799300306826,254.15761809602554 24.78250303392997,251.28516286028025 24.07657624100102,251.0752466987724 24.171971753559774,250.93714351736708 23.995490055327537,251.03657784346433 24.100425119162537,250.9979089605622 24.00025983096566,251.02552959400418 24.100425119162537,251.1249637578985 24.610791111335857,251.14153610079666 24.78250303392997,251.05315021339993 24.672798194515053,250.19690446430832 24.73957505330327,249.89859631491709 24.55355380382389,244.7718588070602 24.400920983724063,243.992861608589 24.167201977950754,243.35750098691278 28.70325860014418,241.03699016792598 29.73353013576707,240.70548050433354 31.913317597762216,239.47887710041323 34.350672943663085,238.2853984667854 34.50330576376291,238.0257028714368 34.28866586048389,236.05308076435176 34.43652890497469,235.83205420128434" stroke="#ff8100" stroke-linecap="round" stroke-linejoin="round" stroke-width="0.5"><title>2023-06-02 22.3km</title></polyline><polyline fill="none" points="57.316661678865785,266.10960338591394 57.38332335776067,265.94819046634075 58.037819841410965,265.7516872709093 57.41968427351094,263.91295162180904 57.57118808917585,263.4988784222878 57.25,262.51632188045915 57.29848122099065,262.3549005359382 59.98918898697593,261.56884336181247 62.65565614242223,260.56520374457614 66.03722130777896,259.1755247309993 66.12206344457809,258.8877594085934 66.25538680230966,259.0913008587013 66.4796124495042,259.007076883383 68.49158312132931,257.8910994804319 69.3097037258558,257.54717826857814 71.3883360766049,257.19623648489505 74.53961544216145,256.96461392741185 82.46629507702892,257.49804652656894 82.82990423458978,257.23133074377984 83.74498728112667,255.59591926572466 84.61158910667291,254.76767030178598 85.35092772706412,254.4377717520474 88.17495885081007,253.82008510841843 87.47804129880387,251.26504963577463 88.42342510848539,250.66137355285173 88.15677839293494,250.30337709489686 88.22950022446457,250.1208683798759 88.16889869817533,249.65757485206268 87.35683824628359,247.37615970116167 87.24169534639805,245.9721743110931 86.19934909470612,240.67187117884168 85.9630031423003,239.9768342516545 85.9084617686458,238.63588457369042 87.56288343554479,238.41122029025428 87.7689286248642,238.20761764943018 89.07186143947183,237.91976461138984 89.15670357624185,238.07422248894 91.5019826425123,237.49851409119583 94.45327697138418,237.08428189666301 94.42297620826866,236.67706815460406 94.08966781385243,235.65200219737744 93.82908125090762,235.27286434199777 93.46547209334676,234.36713766961475 93.88362262453302,234.1494806447372 97.54395481068059,233.14544093240693 97.57425557382521,232.7803319471932 97.22882687413949,231.42519895268197 96.78643573244335,230.56857260698598 97.75,230.14025543132448 97.58031572645996,229.94364993248746 97.2712479425245,229.10807028947602 97.59849618433509,228.89039661408606" stroke="#4dd2ff" stroke-linecap="round" stroke-linejoin="round" stroke-width="0.5"><title>2023-06-01 12.1km</title></polyline><polyline fill="none" points="102.53564231737982,260.09381137178207 102.25,259.21954774277765 102.30610831233207,259.11321748275077 103.19363979843911,258.9064636407711 106.78967254405143,257.6836472614268 106.99370277076378,257.5182401657148 109.86542821157491,256.37809983845364 111.64049118387629,255.40335067893102 112.36479848864838,255.1079689076505 112.51782115866081,254.83621634785595 112.60453400501865,254.8125856302504 112.63003778335406,254.9484621249103 112.76775818638271,255.0252617417973 114.37959697732003,254.75941648036314 115.53746851385222,254.74169341953893 116.78205289671314,254.60581643987462 126.84584382871981,255.24384470952282 128.95245591938146,255.82869778363602 131.03356423173682,255.80506747084655 131.21209068011376,255.89958866410961 132.22714105792693,256.0768154858306 131.55894206548692,255.9468492029191 131.6252518891415,256.02364749624394 131.65585642316728,257.21696174225144 131.50283375312574,256.59077020283075 131.64565491184476,256.3840073591273 131.6252518891415,255.82869778363602 134.3439546599402,256.3840073591273 135.74666246850393,256.4194524704544 135.82317380351014,256.206781477169 136.8127204029879,255.6987309440774 137.5217254408053,255.4565192378068 138.37865239291568,255.33836681847242 140.57707808562554,255.30882867598848 140.6229848866351,255.14341479973154 140.45976070527104,252.11271267341726 140.48526448360644,249.27091613414814 140.5821788412868,249.14684283806127 142.0664987405471,248.52056404820542 142.57657430728432,248.42603081237758 142.75,248.07152980354294 142.20421914357576,244.83365348954612 141.45440806043916,242.36376478331658 140.37814861460356,239.36784925797474 140.12821158688166,239.22011765655043 140.28633501255536,239.1019321039421 139.77625944581814,237.66004893100035 139.29168765741633,236.67907509291035 139.33249370276462,236.57270343655182 138.888727959682,235.7985482706208 138.55717884129263,235.00665364618908 138.2970403022482,234.90618862821793" stroke="#4dd2ff" stroke-linecap="round" stroke-linejoin="round" stroke-width="0.5"><title>2023-05-25 13.2km</title></polyline></svg>