<?xml version="1.0" encoding="utf-8" ?>
<svg baseProfile="full" height="200mm" version="1.1" viewBox="0,0,200,200" width="200mm" xmlns="http://www.w3.org/2000/svg" xmlns:ev="http://www.w3.org/2001/xml-events" xmlns:xlink="http://www.w3.org/1999/xlink"><defs /><rect fill="#1a1a1a" height="200" width="200" x="0" y="0" /><text alignment-baseline="middle" fill="#e1ed5e" style="dominant-baseline: central; font-size:9.0px; font-family:Arial;" text-anchor="middle" x="100.0" y="100.0">2023</text><line stroke="#e1ed5e" stroke-width="0.3" x1="100.0" x2="100.0" y1="15.0" y2="10.0" /><path d="M 100.0 14.0 a86.0,86.0 0 0,1 42.46469731375804,11.215312516191453" fill="none" id="id1" stroke="none" /><text fill="#e1ed5e" style="font-size:6.75px; font-family:Arial;" text-anchor="middle"><textPath startOffset="22.20632615414155" xlink:href="#id1">January</textPath></text><line stroke="#e1ed5e" stroke-width="0.3" x1="143.23703022742887" x2="145.7803849466894" y1="26.81831364943548" y2="22.513508569990506" /><path d="M 143.74570117128098 25.957352633546492 a86.0,86.0 0 0,1 28.547481713284135,27.462654790039103" fill="none" id="id2" stroke="none" /><text fill="#e1ed5e" style="font-size:6.75px; font-family:Arial;" text-anchor="middle"><textPath startOffset="19.985693538727396" xlink:href="#id2">February</textPath></text><line stroke="#e1ed5e" stroke-width="0.3" x1="172.23445277983987" x2="176.4835382374775" y1="55.19839476539836" y2="52.563006222186495" /><path d="M 173.08426987136738 54.67131705675599 a86.0,86.0 0 0,1 12.851231095245387,41.99856678651699" fill="none" id="id3" stroke="none" /><text fill="#e1ed5e" style="font-size:6.75px; font-family:Arial;" text-anchor="middle"><textPath startOffset="22.20632615414155" xlink:href="#id3">March</textPath></text><line stroke="#e1ed5e" stroke-width="0.3" x1="184.98032266829074" x2="189.97916517819016" y1="98.17113171792111" y2="98.06355123074" /><path d="M 185.9800911702706 98.14961562048488 a86.0,86.0 0 0,1 -9.607161424134198,41.387399972396054" fill="none" id="id4" stroke="none" /><text fill="#e1ed5e" style="font-size:6.75px; font-family:Arial;" text-anchor="middle"><textPath startOffset="21.466115282336823" xlink:href="#id4">April</textPath></text><line stroke="#e1ed5e" stroke-width="0.3" x1="174.80103733775053" x2="179.2010983576182" y1="140.37084112569926" y2="142.7455964860345" /><path d="M 175.68104954172406 140.8457921977663 a86.0,86.0 0 0,1 -30.038265399797805,32.042727171017184" fill="none" id="id5" stroke="none" /><text fill="#e1ed5e" style="font-size:6.75px; font-family:Arial;" text-anchor="middle"><textPath startOffset="22.206326154141568" xlink:href="#id5">May</textPath></text><path d="M 112.92097659922987 116.55440617244103 l 15.43186102878423 19.771361205188175 a46.08085043848652,46.08085043848652 0 0,0 -0.629489150351894,0.4826654376954264 l -15.089243149938842 -20.034065984710974" fill="#ffa10e" stroke="none" /><line stroke="#e1ed5e" stroke-width="0.3" x1="143.8653032363475" x2="146.44561519142675" y1="172.8068346515853" y2="177.08958963109032" /><path d="M 144.38136562736335 173.6633856474863 a86.0,86.0 0 0,1 -40.68145358897372,12.25698825130547" fill="none" id="id6" stroke="none" /><text fill="#e1ed5e" style="font-size:6.75px; font-family:Arial;" text-anchor="middle"><textPath startOffset="21.466115282336833" xlink:href="#id6">June</textPath></text><path d="M 110.8373102113329 117.98757091392108 l 11.843747288990134 19.65803691994419 a43.95022364578067,43.95022364578067 0 0,0 -0.6513676987645266,0.38483951771405517 l -11.503611719197226 -19.858995009951997" fill="#ff7c0b" stroke="none" /><path d="M 110.5260780823613 118.17145234162733 l 21.237761982646067 36.66332101005134 a63.37029196875564,63.37029196875564 0 0,0 -0.9485966390924747,0.5386379285282363 l -20.60351657663239 -37.023462104374204" fill="#52ff2b" stroke="none" /><path d="M 109.89434966115114 118.52300852407294 l 29.683048983453418 55.56902557221878 a84.0,84.0 0 0,0 -1.2812363898940176,0.6702823242211329 l -28.722121691032903 -56.07173731538463" fill="#4dd2ff" stroke="none" /><path d="M 109.2508944713604 118.85261126421891 l 18.25071929543266 37.193561901973915 a62.43005915704977,62.43005915704977 0 0,0 -0.9688174007275518,0.46509122728571034 l -17.607789226704874 -37.50220740575919" fill="#5fff29" stroke="none" /><path d="M 107.2578585660854 119.70592522655815 l 16.020902233641326 43.49860204680371 a67.35512580509398,67.35512580509398 0 0,0 -1.0914110382284221,0.39134116776392147 l -15.269771634783169 -43.76793075560759" fill="#32ff45" stroke="none" /><path d="M 106.57524785965236 119.94407469862006 l 8.517279548589526 25.83465493194039 a48.20245294750555,48.20245294750555 0 0,0 -0.7902416982897356,0.2530104367820463 l -8.07131650520885 -25.977438215382143" fill="#ffc612" stroke="none" /><path d="M 105.88484417918355 120.15858648285463 l 6.2451476650020545 21.392809302999712 a43.28573892048885,43.28573892048885 0 0,0 -0.717036163619022,0.2026415821193852 l -5.875980333278427 -21.497139678457618" fill="#ff700a" stroke="none" /><path d="M 104.13013068566511 120.58985236759428 l 9.553451052104055 47.626615653248734 a69.57533268632574,69.57533268632574 0 0,0 -1.1762617300282616,0.22543336008642878 l -8.732221707504088 -47.78400621168363" fill="#35ff67" stroke="none" /><path d="M 102.34483914955558 120.86867818915974 l 1.8219253882832382 16.214832740211143 a37.31686896783492,37.31686896783492 0 0,0 -0.6389490322653985,0.06622967969928183 l -1.542543759412237 -16.24379178836618" fill="#ff0000" stroke="none" /><path d="M 101.62511606390274 120.93702456842531 l 3.710920269079865 47.80927994681548 a68.95308309458778,68.95308309458778 0 0,0 -1.1841452153815786,0.08166558701278806 l -2.8874122929193557 -47.86607387834456" fill="#34ff5e" stroke="none" /><line stroke="#e1ed5e" stroke-width="0.3" x1="102.19456741930631" x2="102.32365962044197" y1="184.97166512339345" y2="189.96999836594603" /><path d="M 102.22038585953345 185.97133177190398 a86.0,86.0 0 0,1 -42.740103519485714,-10.115201625700543" fill="none" id="id7" stroke="none" /><text fill="#e1ed5e" style="font-size:6.75px; font-family:Arial;" text-anchor="middle"><textPath startOffset="22.20632615414155" xlink:href="#id7">July</textPath></text><path d="M 99.45781275523022 120.99299961872073 l -1.2859835397388724 49.792119272157386 a70.80872308418704,70.80872308418704 0 0,0 -1.2181785987725084,-0.041956534025116454 l 2.142882490186024 -49.76260593970618" fill="#37ff7a" stroke="none" /><path d="M 98.73552117531835 120.96189622390904 l -2.767042202404506 45.87063884488769 a66.95402083156605,66.95402083156605 0 0,0 -1.149814915592666,-0.07929796854153226 l 3.556219878776102 -45.81621253182987" fill="#31ff3e" stroke="none" /><path d="M 96.58105272829116 120.7198165907248 l -7.148838227231907 43.324042500068515 a64.9098912153842,64.9098912153842 0 0,0 -1.100844024666497,-0.19139584438587828 l 7.893531223370454 -43.194568077161634" fill="#3eff2e" stroke="none" /><path d="M 94.46302465271185 120.25689768951611 l -12.637342368421171 46.23342806643937 a68.9294512060311,68.9294512060311 0 0,0 -1.1418289368681929,-0.3226922629799253 l 13.431302473393977 -46.00904701012092" fill="#34ff5d" stroke="none" /><line stroke="#e1ed5e" stroke-width="0.3" x1="58.666819895761336" x2="56.23545636021788" y1="174.27360380694188" y2="178.64263932499728" /><path d="M 58.180547188652646 175.14741091055294 a86.0,86.0 0 0,1 -31.652253787137756,-30.449443065178592" fill="none" id="id8" stroke="none" /><text fill="#e1ed5e" style="font-size:6.75px; font-family:Arial;" text-anchor="middle"><textPath startOffset="22.20632615414155" xlink:href="#id8">August</textPath></text><line stroke="#e1ed5e" stroke-width="0.3" x1="26.63291911575756" x2="22.317208475507996" y1="142.92168965132927" y2="145.44649492493687" /><path d="M 25.769776987707644 143.4266507060508 a86.0,86.0 0 0,1 -11.730757126820373,-40.83630448921669" fill="none" id="id9" stroke="none" /><text fill="#e1ed5e" style="font-size:6.75px; font-family:Arial;" text-anchor="middle"><textPath startOffset="21.46611528233685" xlink:href="#id9">September</textPath></text><line stroke="#e1ed5e" stroke-width="0.3" x1="15.007084014347285" x2="10.007500721073583" y1="101.09737516637583" y2="101.16192664675087" /><path d="M 14.007167355692545 101.11028546245083 a86.0,86.0 0 0,1 10.666146001902534,-42.60595125391555" fill="none" id="id10" stroke="none" /><text fill="#e1ed5e" style="font-size:6.75px; font-family:Arial;" text-anchor="middle"><textPath startOffset="22.20632615414155" xlink:href="#id10">October</textPath></text><line stroke="#e1ed5e" stroke-width="0.3" x1="26.266209847984243" x2="21.928928074336255" y1="57.711370442889674" y2="55.22380399835377" /><path d="M 25.398753493254645 57.213857153982495 a86.0,86.0 0 0,1 29.58750427330803,-30.492523968695096" fill="none" id="id11" stroke="none" /><text fill="#e1ed5e" style="font-size:6.75px; font-family:Arial;" text-anchor="middle"><textPath startOffset="21.46611528233685" xlink:href="#id11">November</textPath></text><line stroke="#e1ed5e" stroke-width="0.3" x1="56.762969772571076" x2="54.21961505331055" y1="26.818313649435495" y2="22.513508569990535" /><path d="M 56.25429882871897 25.957352633546506 a86.0,86.0 0 0,1 42.265352541879196,-11.944610805530505" fill="none" id="id12" stroke="none" /><text fill="#e1ed5e" style="font-size:6.75px; font-family:Arial;" text-anchor="middle"><textPath startOffset="22.20632615414155" xlink:href="#id12">December</textPath></text></svg>