<?xml version="1.0" encoding="utf-8" ?>
<svg baseProfile="full" height="200mm" version="1.1" viewBox="0,0,200,200" width="200mm" xmlns="http://www.w3.org/2000/svg" xmlns:ev="http://www.w3.org/2001/xml-events" xmlns:xlink="http://www.w3.org/1999/xlink"><defs /><rect fill="#1a1a1a" height="200" width="200" x="0" y="0" /><text alignment-baseline="middle" fill="#e1ed5e" style="dominant-baseline: central; font-size:9.0px; font-family:Arial;" text-anchor="middle" x="100.0" y="100.0">2023</text><line stroke="#e1ed5e" stroke-width="0.3" x1="100.0" x2="100.0" y1="15.0" y2="10.0" /><path d="M 100.0 14.0 a86.0,86.0 0 0,1 42.46469731375804,11.215312516191453" fill="none" id="id13" stroke="none" /><text fill="#e1ed5e" style="font-size:6.75px; font-family:Arial;" text-anchor="middle"><textPath startOffset="22.20632615414155" xlink:href="#id13">January</textPath></text><path d="M 105.71112130821622 79.79150937346287 l 0.6750428451339409 -2.388602215255859 a23.48215700258701,23.48215700258701 0 0,0 0.38802562804057233,0.11327532118835394 l -0.7160586908979404 2.3766285651488017" fill="#ff1302" stroke="none" /><path d="M 106.0581310904928 79.89281104454417 l 2.1546247457605565 -7.151289109457748 a28.46882478855226,28.46882478855226 0 0,0 0.4679930827973302,0.14540772889872716 l -2.277403201268605 7.1131412456765" fill="#ff5908" stroke="none" /><path d="M 110.05341064243156 81.56283822128135 l 3.8223822275803454 -7.009947371746144 a28.984357710446893,28.984357710446893 0 0,0 0.4359743044975903,0.2426192284335448 l -3.9424806211499708 6.943112745752419" fill="#ff6008" stroke="none" /><path d="M 110.36928655335952 81.73862282372117 l 5.242686122496198 -9.23290799295422 a31.61754904793814,31.61754904793814 0 0,0 0.4709558406491809,0.2728080210001233 l -5.400838695610707 9.141295814564046" fill="#ff840c" stroke="none" /><line stroke="#e1ed5e" stroke-width="0.3" x1="143.23703022742887" x2="145.7803849466894" y1="26.81831364943548" y2="22.513508569990506" /><path d="M 143.74570117128098 25.957352633546492 a86.0,86.0 0 0,1 28.547481713284135,27.462654790039103" fill="none" id="id14" stroke="none" /><text fill="#e1ed5e" style="font-size:6.75px; font-family:Arial;" text-anchor="middle"><textPath startOffset="19.985693538727396" xlink:href="#id14">February</textPath></text><path d="M 111.60114157652 82.49532879139004 l 1.4878892789006097 -2.2450387705537906 a23.69332760494468,23.69332760494468 0 0,0 0.33801951068234853,0.2282322824993043 l -1.5263134839895003 2.219094575755816" fill="#ff1602" stroke="none" /><path d="M 114.42810811169701 84.74124197986012 l 6.093518947387414 -6.444332852894456 a29.86906979795876,29.86906979795876 0 0,0 0.37054253238469037,0.35646162257360847 l -6.203544723384523 6.338488143558545" fill="#ff6d0a" stroke="none" /><path d="M 114.68862486808459 84.99185889309783 l 7.545516062175917 -7.709650889893016 a31.787656348279867,31.787656348279867 0 0,0 0.3877552168101544,0.38609007268096945 l -7.6771070791533935 7.578624966561928" fill="#ff870c" stroke="none" /><path d="M 114.94478906791727 85.2469230424477 l 7.686611338262579 -7.588007304808731 a31.80101146760513,31.80101146760513 0 0,0 0.3812119541325452,0.3928724282103893 l -7.816087556098234 7.454570681048228" fill="#ff870c" stroke="none" /><path d="M 115.4437574822437 85.77008943001954 l 32.834993860771036 -30.25423228393951 a65.64812866098018,65.64812866098018 0 0,0 0.7585683762496922,0.8376301474133176 l -33.35090587763676 29.684549349256642" fill="#36ff70" stroke="none" /><path d="M 116.38621287248628 86.86637796730983 l 7.779039931862355 -6.234934883204789 a30.969346781976892,30.969346781976892 0 0,0 0.32981752545045634,0.41883476382797297 l -7.885211537906776 6.100107725423777" fill="#ff7c0b" stroke="none" /><path d="M 116.60985879189232 87.15038557335679 l 4.322749418146503 -3.3441382002170936 a26.46529256620697,26.46529256620697 0 0,0 0.27564743967797034,0.36271971958651783 l -4.3796727980485874 3.269233704749542" fill="#ff3d05" stroke="none" /><path d="M 117.45458315368197 88.32363383020206 l 4.255692117242676 -2.846875174808517 a26.120118519888234,26.120118519888234 0 0,0 0.2467771142474097,0.37585847540344947 l -4.304065866848011 2.7731986354273936" fill="#ff3805" stroke="none" /><path d="M 117.65298651832404 88.62581576622439 l 8.80253797094761 -5.671657229355258 a31.471502779318364,31.471502779318364 0 0,0 0.2894964686491912,0.4579138906756964 l -8.898862035842756 5.519295690965356" fill="#ff820c" stroke="none" /><line stroke="#e1ed5e" stroke-width="0.3" x1="172.23445277983987" x2="176.4835382374775" y1="55.19839476539836" y2="52.563006222186495" /><path d="M 173.08426987136738 54.67131705675599 a86.0,86.0 0 0,1 12.851231095245387,41.99856678651699" fill="none" id="id15" stroke="none" /><text fill="#e1ed5e" style="font-size:6.75px; font-family:Arial;" text-anchor="middle"><textPath startOffset="22.20632615414155" xlink:href="#id15">March</textPath></text><path d="M 118.03404312379186 89.2402003453031 l 9.156062283521873 -5.462856838057042 a31.661907961187733,31.661907961187733 0 0,0 0.2752178564821783,0.4704365299069846 l -9.248739814474378 5.304440895796162" fill="#ff850c" stroke="none" /><path d="M 118.89224826269711 90.83032412892265 l 7.223801951142186 -3.5061958496290333 a29.029739968721373,29.029739968721373 0 0,0 0.21432491985974866,0.45142294089375745 l -7.283085064843691 3.3813304930947354" fill="#ff6109" stroke="none" /><path d="M 119.196687751892 91.48605970444005 l 9.56506218250583 -4.242209353910372 a31.46359186692638,31.46359186692638 0 0,0 0.21531478347598063,0.496976206506547 l -9.636667675824492 4.076934002817222" fill="#ff820c" stroke="none" /><path d="M 119.34039704204932 91.81776055985345 l 9.02124350930007 -3.8165697570984145 a30.795358041689283,30.795358041689283 0 0,0 0.20233769306323157,0.4899767730344647 l -9.0856028892495 3.6607184136106463" fill="#ff790b" stroke="none" /><path d="M 119.47837535516314 92.15188598940014 l 1.4062173105790312 -0.5665849217849673 a22.516069127106743,22.516069127106743 0 0,0 0.14175093190062013,0.36074066017382717 l -1.415761792361352 0.5422952567153557" fill="#ff0500" stroke="none" /><path d="M 119.85752413597 93.16781622104841 l 10.155612626634474 -3.4941421386628786 a31.73990209952759,31.73990209952759 0 0,0 0.17330395572147195,0.5181567690633607 l -10.214253876127716 3.3188122666772037" fill="#ff860c" stroke="none" /><path d="M 119.97218684219823 93.5106431181261 l 5.018583358517736 -1.6306365803691019 a26.276850820672212,26.276850820672212 0 0,0 0.13606968717090542,0.43137809272688366 l -5.045908529456848 1.5440083212157991" fill="#ff3b05" stroke="none" /><path d="M 120.78858239683441 97.02765380044208 l 2.8616473036316488 -0.4091576003142909 a23.890749942882856,23.890749942882856 0 0,0 0.05470299251250377,0.4076008332787902 l -2.868266295201989 0.3598384249708363" fill="#ff1902" stroke="none" /><path d="M 120.83666639777658 97.38593545837742 l 1.194195206866491 -0.1498177916971613 a22.20355621506098,22.20355621506098 0 0,0 0.04431158109705596,0.37963456621303704 l -1.1965971409671359 0.12923948715927153" fill="#ff0000" stroke="none" /><path d="M 120.87857604477298 97.74499172005257 l 10.56131181624886 -1.1406834231259835 a31.62273345009806,31.62273345009806 0 0,0 0.05379309202963029,0.5416890956196018 l -10.57938203396072 0.9587187968019466" fill="#ff840c" stroke="none" /><path d="M 120.91429891909075 98.10471618934814 l 5.6437913082578826 -0.511448475448294 a26.666918022541495,26.666918022541495 0 0,0 0.03749307235994076,0.4575104492610966 l -5.651758864437318 0.4142241089794286" fill="#ff4006" stroke="none" /><line stroke="#e1ed5e" stroke-width="0.3" x1="184.98032266829074" x2="189.97916517819016" y1="98.17113171792111" y2="98.06355123074" /><path d="M 185.9800911702706 98.14961562048488 a86.0,86.0 0 0,1 -9.607161424134198,41.387399972396054" fill="none" id="id16" stroke="none" /><text fill="#e1ed5e" style="font-size:6.75px; font-family:Arial;" text-anchor="middle"><textPath startOffset="21.466115282336823" xlink:href="#id16">April</textPath></text><path d="M 120.92983693683757 101.71520430193887 l 10.741011168641528 0.8802280026941797 a31.777018245396498,31.777018245396498 0 0,0 -0.04936847854127637,0.5447770468940184 l -10.724268093823175 -1.0649864381367686" fill="#ff860c" stroke="none" /><path d="M 120.81339534386255 102.79330883721812 l 10.109372427842821 1.3567512111736966 a31.20000905557686,31.20000905557686 0 0,0 -0.07601800341043913,0.5316697387995434 l -10.084520373415781 -1.5305664219536494" fill="#ff7f0b" stroke="none" /><path d="M 120.70491114924044 103.5080841355445 l 5.055766659900438 0.8566110081212387 a26.127822046307312,26.127822046307312 0 0,0 -0.07894777441746559,0.4427810452600003 l -5.040272443143783 -0.9435108041144573" fill="#ff3905" stroke="none" /><path d="M 120.23288151984713 105.62410040840565 l 2.4449413748522417 0.679616285566935 a23.53763997093208,23.53763997093208 0 0,0 -0.11186808473443233,0.38942747867451905 l -2.43288065323171 -0.721601239746036" fill="#ff1302" stroke="none" /><path d="M 120.02730092923936 106.31721596034902 l 3.389141650933608 1.0690377003275282 a24.55374770275192,24.55374770275192 0 0,0 -0.13061161357092446,0.40198121285113303 l -3.3702377863464363 -1.1272178131564565" fill="#ff2203" stroke="none" /><path d="M 119.9155931802556 106.66101706037122 l 9.484952141773343 3.172359841924927 a31.001409105640498,31.001409105640498 0 0,0 -0.17362142688111132,0.5046251369049448 l -9.428939883949 -3.335157681919172" fill="#ff7c0b" stroke="none" /><path d="M 119.41010516605496 108.01547362559984 l 9.705863208388779 4.0080715634954 a31.500877024232565,31.500877024232565 0 0,0 -0.211279410497376,0.49940211548687996 l -9.635432816699094 -4.174548204648444" fill="#ff830c" stroke="none" /><path d="M 118.64920377521936 109.65438752849418 l 55.94761132565807 28.96316258548255 a84.0,84.0 0 0,0 -0.6757899671004277,1.2783399396554627 l -55.44076885033275 -29.921917540224147" fill="#4dd2ff" stroke="none" /><line stroke="#e1ed5e" stroke-width="0.3" x1="174.80103733775053" x2="179.2010983576182" y1="140.37084112569926" y2="142.7455964860345" /><path d="M 175.68104954172406 140.8457921977663 a86.0,86.0 0 0,1 -30.038265399797805,32.042727171017184" fill="none" id="id17" stroke="none" /><text fill="#e1ed5e" style="font-size:6.75px; font-family:Arial;" text-anchor="middle"><textPath startOffset="22.206326154141568" xlink:href="#id17">May</textPath></text><path d="M 118.48025628344425 109.97397251340804 l 6.041355564778283 3.260577852527114 a27.865081572164154,27.865081572164154 0 0,0 -0.2314441704163546,0.420138396809391 l -5.984334984910419 -3.36408676773431" fill="#ff5107" stroke="none" /><path d="M 116.93607887273984 112.41649034213515 l 8.453060655762155 6.197263651310205 a31.481426964580958,31.481426964580958 0 0,0 -0.32416685187866473,0.4342744726812983 l -8.345132537188398 -6.341851003500818" fill="#ff820c" stroke="none" /><path d="M 116.71984013943494 112.70617746262583 l 7.953785974238702 6.044448705586531 a30.98989847187963,30.98989847187963 0 0,0 -0.326416870337332,0.4219378063479271 l -7.848562286683301 -6.18046450604771" fill="#ff7c0b" stroke="none" /><path d="M 115.56566222782051 114.09645910891815 l 7.665006161780068 6.941525798756035 a31.3410395935284,31.3410395935284 0 0,0 -0.36557620121824186,0.39676076424577184 l -7.544383552566104 -7.0724378178031415" fill="#ff810b" stroke="none" /><path d="M 115.32070863581623 114.36230785411682 l 7.51984172528422 7.049431226717598 a31.307400263575037,31.307400263575037 0 0,0 -0.3719519647199263,0.3899901479644843 l -7.397383209185329 -7.17782849126459" fill="#ff800b" stroke="none" /><path d="M 113.48314897796784 116.09983520530334 l 3.2480823271851182 3.8784404360130553 a26.058887132549355,26.058887132549355 0 0,0 -0.34637208645604306,0.28504064626173586 l -3.180840112184384 -3.9337762011319697" fill="#ff3805" stroke="none" /><path d="M 112.92097659922987 116.55440617244103 l 3.425426344423578 4.388669740547909 a26.567222622876862,26.567222622876862 0 0,0 -0.36292252067719544,0.2782735130450829 l -3.3493750952528885 -4.446982595420364" fill="#ff3f05" stroke="none" /><line stroke="#e1ed5e" stroke-width="0.3" x1="143.8653032363475" x2="146.44561519142675" y1="172.8068346515853" y2="177.08958963109032" /><path d="M 144.38136562736335 173.6633856474863 a86.0,86.0 0 0,1 -40.68145358897372,12.25698825130547" fill="none" id="id18" stroke="none" /><text fill="#e1ed5e" style="font-size:6.75px; font-family:Arial;" text-anchor="middle"><textPath startOffset="21.466115282336833" xlink:href="#id18">June</textPath></text><path d="M 110.8373102113329 117.98757091392108 l 2.6462041048899883 4.392121574562126 a26.127682526294965,26.127682526294965 0 0,0 -0.38722734560730104,0.22878074121860817 l -2.5702088882543053 -4.437020888074484" fill="#ff3905" stroke="none" /><path d="M 110.5260780823613 118.17145234162733 l 4.722444703049555 8.152483592273049 a30.421489940324836,30.421489940324836 0 0,0 -0.45538251784930717,0.25857807838850194 l -4.581413418279048 -8.232564836456179" fill="#ff740a" stroke="none" /><path d="M 109.89434966115114 118.52300852407294 l 6.63200952066724 12.415648636856437 a35.07593269933101,35.07593269933101 0 0,0 -0.5350066831411475,0.27989021064204317 l -6.4173119349995975 -12.527968266443198" fill="#ffb210" stroke="none" /><path d="M 109.2508944713604 118.85261126421891 l 4.0970040062205895 8.349378983442865 a30.30040704679881,30.30040704679881 0 0,0 -0.47021518147562913,0.22573186203782233 l -3.9526761567447273 -8.418665121980247" fill="#ff720a" stroke="none" /><path d="M 107.2578585660854 119.70592522655815 l 3.5777425354968475 9.713984675014654 a31.351895474584495,31.351895474584495 0 0,0 -0.5080207984372496,0.18215818380534288 l -3.410002176429863 -9.774130399859956" fill="#ff810b" stroke="none" /><path d="M 106.57524785965236 119.94407469862006 l 1.8997670464628975 5.762382908351085 a27.0674683034428,27.0674683034428 0 0,0 -0.44375007520489973,0.14207476091510102 l -1.8002956261670575 -5.794230515925892" fill="#ff4606" stroke="none" /><path d="M 105.88484417918355 120.15858648285463 l 0.6996310426648995 2.396592407584669 a23.49662547530719,23.49662547530719 0 0,0 -0.3892258884561274,0.10999912395001636 l -0.6582739861041663 -2.4082803248732048" fill="#ff1302" stroke="none" /><path d="M 104.13013068566511 120.58985236759428 l 2.1339224954547698 10.638198277308636 a31.85011003648997,31.85011003648997 0 0,0 -0.5384676448766064,0.10319860570439769 l -1.950487236006459 -10.673354081361502" fill="#ff870c" stroke="none" /><path d="M 102.34483914955558 120.86867818915974 l 0.4071346380679122 3.6234305210698907 a24.646231939212797,24.646231939212797 0 0,0 -0.421999124849467,0.043741934740967575 l -0.3447029166128426 -3.629901824266617" fill="#ff2303" stroke="none" /><path d="M 101.62511606390274 120.93702456842531 l 0.6149177247918602 7.922232631562955 a28.94606151982629,28.94606151982629 0 0,0 -0.4970965577539711,0.03428268903483498 l -0.47845840625895886 -7.931643665114075" fill="#ff6008" stroke="none" /><line stroke="#e1ed5e" stroke-width="0.3" x1="102.19456741930631" x2="102.32365962044197" y1="184.97166512339345" y2="189.96999836594603" /><path d="M 102.22038585953345 185.97133177190398 a86.0,86.0 0 0,1 -42.740103519485714,-10.115201625700543" fill="none" id="id19" stroke="none" /><text fill="#e1ed5e" style="font-size:6.75px; font-family:Arial;" text-anchor="middle"><textPath startOffset="22.20632615414155" xlink:href="#id19">July</textPath></text><path d="M 99.45781275523022 120.99299961872073 l -0.2877456563441868 11.141251499723122 a32.14496669096986,32.14496669096986 0 0,0 -0.553015345787805,-0.01904696667248757 l 0.47948135380663476 -11.13464773462454" fill="#ff8b0c" stroke="none" /><path d="M 98.73552117531835 120.96189622390904 l -0.617799145166112 10.241564599907138 a31.26018134527061,31.26018134527061 0 0,0 -0.536837404662304,-0.03702345051323905 l 0.7939993106073462 -10.229412804877613" fill="#ff7f0b" stroke="none" /><path d="M 96.58105272829116 120.7198165907248 l -1.600093897338212 9.697035211723243 a30.82816322502325,30.82816322502325 0 0,0 -0.5228324781056931,-0.09090112802285152 l 1.766775346915955 -9.668055505179385" fill="#ff7a0b" stroke="none" /><path d="M 94.46302465271185 120.25689768951611 l -2.821908747734993 10.323888622696346 a31.702609274115463,31.702609274115463 0 0,0 -0.525159507439161,-0.14841532247884165 l 2.999199423278768 -10.273784506878982" fill="#ff850c" stroke="none" /><line stroke="#e1ed5e" stroke-width="0.3" x1="58.666819895761336" x2="56.23545636021788" y1="174.27360380694188" y2="178.64263932499728" /><path d="M 58.180547188652646 175.14741091055294 a86.0,86.0 0 0,1 -31.652253787137756,-30.449443065178592" fill="none" id="id20" stroke="none" /><text fill="#e1ed5e" style="font-size:6.75px; font-family:Arial;" text-anchor="middle"><textPath startOffset="22.20632615414155" xlink:href="#id20">August</textPath></text><line stroke="#e1ed5e" stroke-width="0.3" x1="26.63291911575756" x2="22.317208475507996" y1="142.92168965132927" y2="145.44649492493687" /><path d="M 25.769776987707644 143.4266507060508 a86.0,86.0 0 0,1 -11.730757126820373,-40.83630448921669" fill="none" id="id21" stroke="none" /><text fill="#e1ed5e" style="font-size:6.75px; font-family:Arial;" text-anchor="middle"><textPath startOffset="21.46611528233685" xlink:href="#id21">September</textPath></text><line stroke="#e1ed5e" stroke-width="0.3" x1="15.007084014347285" x2="10.007500721073583" y1="101.09737516637583" y2="101.16192664675087" /><path d="M 14.007167355692545 101.11028546245083 a86.0,86.0 0 0,1 10.666146001902534,-42.60595125391555" fill="none" id="id22" stroke="none" /><text fill="#e1ed5e" style="font-size:6.75px; font-family:Arial;" text-anchor="middle"><textPath startOffset="22.20632615414155" xlink:href="#id22">October</textPath></text><line stroke="#e1ed5e" stroke-width="0.3" x1="26.266209847984243" x2="21.928928074336255" y1="57.711370442889674" y2="55.22380399835377" /><path d="M 25.398753493254645 57.213857153982495 a86.0,86.0 0 0,1 29.58750427330803,-30.492523968695096" fill="none" id="id23" stroke="none" /><text fill="#e1ed5e" style="font-size:6.75px; font-family:Arial;" text-anchor="middle"><textPath startOffset="21.46611528233685" xlink:href="#id23">November</textPath></text><line stroke="#e1ed5e" stroke-width="0.3" x1="56.762969772571076" x2="54.21961505331055" y1="26.818313649435495" y2="22.513508569990535" /><path d="M 56.25429882871897 25.957352633546506 a86.0,86.0 0 0,1 42.265352541879196,-11.944610805530505" fill="none" id="id24" stroke="none" /><text fill="#e1ed5e" style="font-size:6.75px; font-family:Arial;" text-anchor="middle"><textPath startOffset="22.20632615414155" xlink:href="#id24">December</textPath></text></svg>